<svg width="1658" height="720" viewBox="0 0 1658 720" xmlns="http://www.w3.org/2000/svg"><g fill="none" fill-rule="evenodd"><path d="M1171.656 160.823c-1.201 0-2.202-.801-2.603-2.003l-8.209-41.057c-.2-.6 0-1.402.4-2.002.401-.601 1.002-1.002 1.603-1.202l23.224-4.807h.601c1.201 0 2.202.801 2.603 2.003l8.209 41.057c.2 1.402-.6 2.804-2.002 3.004l-23.225 5.007h-.601z" fill="#B4E5F9"/><path d="M1186.672 110.353c1.001 0 2.002.801 2.202 1.803l8.21 41.057c.2 1.201-.601 2.403-1.803 2.603l-23.024 4.807h-.4c-1.002 0-2.003-.801-2.203-1.803l-8.209-41.057c-.2-1.201.6-2.403 1.802-2.603l23.425-4.807c-.2 0-.2 0 0 0zm0-.6h-.6l-23.225 4.806c-1.602.4-2.603 1.802-2.203 3.405l8.209 41.057c.2 1.402 1.402 2.403 2.803 2.403h.6l23.226-4.807c.8-.2 1.401-.6 1.801-1.201.4-.601.601-1.402.4-2.203l-8.208-41.057c-.2-1.603-1.401-2.404-2.803-2.404z" fill="#008CDB"/><path fill="#008CDB" d="M1164.231 121.052l23.155-4.684 6.831 33.762-23.155 4.684z"/><path d="M1174.059 177.246c-2.403 0-4.806-.801-7.008-2.203l-6.807-4.607c-2.803-1.802-4.605-4.406-5.206-7.61-.8-3.205 0-6.41 1.802-9.413 2.403-3.605 6.007-5.608 10.01-5.608 2.403 0 4.806.801 7.008 2.203l6.808 4.606c5.806 3.806 7.207 11.216 3.403 17.024-2.202 3.605-6.006 5.608-10.01 5.608z" fill="#00A6FB"/><path d="M1167.051 148.606c2.202 0 4.605.6 6.607 2.003 0 0 4.004 2.804 6.807 4.606 5.206 3.405 7.008 10.415 3.204 16.023-2.403 3.605-5.806 5.407-9.41 5.407-2.203 0-4.605-.6-6.607-2.003 0 0-4.005-2.804-6.808-4.606-5.205-3.405-7.007-10.415-3.203-16.022 2.202-3.605 5.606-5.408 9.41-5.408zm0-1.202c-4.204 0-8.008 2.204-10.411 5.809-2.002 3.004-2.603 6.408-2.002 9.613.6 3.405 2.603 6.208 5.606 8.211l6.807 4.607c2.202 1.402 4.805 2.203 7.208 2.203 4.204 0 8.008-2.203 10.411-5.808 4.004-6.009 2.403-13.62-3.604-17.825l-6.807-4.606c-2.203-1.402-4.805-2.204-7.208-2.204z" fill="#008CDB"/><path d="M1241.53 326.253c-10.81 0-18.82-8.412-18.82-19.427v-85.119h-6.006v85.119c0 11.015-8.008 19.427-18.82 19.427-10.811 0-18.82-8.412-18.82-19.427V121.769c0-10.415 8.61-19.026 19.02-19.026h43.046c10.612 0 19.02 8.611 19.02 19.026v185.057c.201 11.015-7.808 19.427-18.62 19.427z" fill="#00A6FB"/><path d="M1241.33 103.143c10.212 0 18.42 8.211 18.42 18.426v185.056c0 10.415-7.408 18.826-18.22 18.826-10.81 0-18.219-8.612-18.219-18.826v-85.719h-7.007v85.72c0 10.414-7.408 18.825-18.22 18.825-10.811 0-18.22-8.612-18.22-18.826V121.57a18.374 18.374 0 0 1 18.42-18.426h43.047zm0-1.001h-43.045c-10.812 0-19.621 8.812-19.621 19.627v185.057c0 11.415 8.409 20.027 19.42 20.027 11.012 0 19.421-8.612 19.421-20.027v-84.718h4.805v84.718c0 11.415 8.41 20.027 19.421 20.027 11.012 0 19.42-8.612 19.42-20.027V121.769c-.2-10.815-9.009-19.627-19.82-19.627z" fill="#008CDB"/><path d="M1184.67 54.476c0 19.426 15.817 35.248 35.238 35.248 19.42 0 35.237-15.822 35.237-35.248 0-19.427-15.816-35.25-35.237-35.25-19.621 0-35.238 15.823-35.238 35.25z" stroke="#008CDB" stroke-width=".585" fill="#00A6FB"/><g transform="translate(979.049 18.025)"><path d="M76.883 306.826c-11.212 0-19.62-8.412-19.62-19.628V201.68h-6.007v85.518c0 11.216-8.409 19.628-19.621 19.628-11.212 0-19.621-8.412-19.621-19.628V97.535c0-10.614 8.61-19.226 19.22-19.226h45.85c10.611 0 19.22 8.612 19.22 19.226V287.4c0 11.015-8.409 19.427-19.42 19.427z" fill="#00A6FB"/><path d="M77.084 78.91c10.21 0 18.62 8.21 18.62 18.625V287.4c0 10.214-7.609 19.026-19.02 19.026-11.213 0-19.021-8.412-19.021-19.026v-86.32h-7.408v86.32c0 10.214-7.608 19.026-19.02 19.026-11.413 0-19.02-8.412-19.02-19.026V97.736c0-10.215 8.408-18.626 18.62-18.626h46.249v-.2zm0-1.202h-45.85c-11.011 0-19.82 9.012-19.82 19.827v189.663c0 11.616 8.609 20.228 20.221 20.228s20.222-8.612 20.222-20.228v-84.917h4.805v84.917c0 11.616 8.609 20.228 20.221 20.228 11.613 0 20.222-8.612 20.222-20.228V97.335c-.2-10.815-9.01-19.627-20.021-19.627z" fill="#008CDB"/><path d="M54.26.6C34.837.6 19.02 16.424 19.02 35.85S34.838 71.099 54.26 71.099s35.238-15.822 35.238-35.25C89.497 16.424 73.68.602 54.259.602z" stroke="#008CDB" stroke-width=".64" fill="#00A6FB"/><path d="M66.672 135.989h-.4l-47.25-4.807c-2.403-.2-4.205-2.403-4.005-4.807l3.404-33.246c.2-2.203 2.202-4.005 4.405-4.005h.4l47.05 4.806c1.202.2 2.203.601 3.004 1.602.8 1.002 1 2.003 1 3.205l-3.203 33.246c-.4 2.203-2.202 4.006-4.405 4.006z" fill="#B4E5F9"/><path d="M23.026 89.724h.4l47.05 4.807c2.003.2 3.604 2.003 3.404 4.206l-3.403 33.246c-.2 2.003-1.802 3.405-3.805 3.405h-.4l-47.05-4.807c-2.002-.2-3.604-2.003-3.404-4.206l3.404-33.246c.2-2.003 1.802-3.405 3.804-3.405zm0-1.201c-2.603 0-4.805 2.003-5.006 4.606l-3.403 33.246c-.2 1.402.2 2.604 1.201 3.605.8 1.002 2.002 1.602 3.404 1.803l47.05 4.806h.6c2.603 0 4.806-2.002 5.006-4.606l3.404-33.246c.2-2.804-1.802-5.207-4.605-5.608l-47.05-4.807c-.401.2-.601.2-.601.2z" fill="#008CDB"/><path d="M65.872 151.41c-4.005 0-7.809-2.003-10.011-5.608-3.804-5.808-2.403-13.218 3.404-17.023l6.807-4.607c2.202-1.402 4.605-2.203 7.007-2.203 4.005 0 7.809 2.003 10.011 5.608 1.802 2.804 2.603 6.008 2.002 9.213-.6 3.204-2.603 6.008-5.406 7.81l-6.807 4.607c-2.202 1.402-4.605 2.203-7.007 2.203z" fill="#00A6FB"/><path d="M73.08 122.57c3.603 0 7.207 1.802 9.61 5.407 3.804 5.809 2.002 12.618-3.204 16.223-2.803 1.802-6.807 4.606-6.807 4.606-2.002 1.402-4.405 2.003-6.607 2.003-3.604 0-7.208-1.802-9.61-5.407-3.805-5.808-2.003-12.618 3.203-16.223 2.803-1.802 6.807-4.606 6.807-4.606 2.002-1.202 4.405-2.003 6.607-2.003zm0-1.202c-2.603 0-5.006.801-7.409 2.203l-6.807 4.607c-6.207 4.005-7.808 11.816-3.604 18.025 2.403 3.805 6.407 6.008 10.612 6.008 2.602 0 5.005-.801 7.408-2.203l6.807-4.606c3.003-2.003 5.005-4.807 5.606-8.212.6-3.204 0-6.81-2.002-9.813-2.403-3.806-6.407-6.009-10.612-6.009z" fill="#008CDB"/><g><path d="M14.016 145.602c-6.207 0-11.212-4.406-12.013-10.615l-1.201-8.211c-.4-3.405.2-6.61 2.202-9.013 2.002-2.603 4.805-4.406 8.21-4.806.6 0 1.4-.2 2.001-.2 6.207 0 11.212 4.405 12.013 10.614l1.201 8.211c.4 3.405-.2 6.61-2.202 9.013-2.002 2.604-4.805 4.406-8.409 4.807-.4.2-1.001.2-1.802.2z" fill="#00A6FB"/><path d="M13.415 113.557c6.007 0 10.612 4.407 11.413 10.014.4 3.205 1.201 8.212 1.201 8.212C27.03 138.192 23.026 144 16.219 145c-.601 0-1.202.2-1.802.2-6.007 0-10.612-4.406-11.413-10.014-.4-3.204-1.201-8.21-1.201-8.21-1.001-6.41 3.003-12.218 9.81-13.22.4-.2 1.202-.2 1.802-.2zm0-1.401c-.6 0-1.401 0-2.002.2-3.604.6-6.807 2.403-8.81 5.007-2.001 2.603-2.802 6.008-2.201 9.613l1.2 8.211c1.002 6.61 6.207 11.216 12.614 11.216.6 0 1.402 0 2.002-.2 3.604-.601 6.808-2.404 8.81-5.007 2.002-2.604 2.803-6.009 2.202-9.614l-1.201-8.21c-1.001-6.61-6.207-11.216-12.614-11.216z" fill="#008CDB"/></g><ellipse fill="#008CDB" cx="36.841" cy="45.263" rx="4.405" ry="4.406"/><ellipse fill="#008CDB" cx="59.064" cy="45.263" rx="4.405" ry="4.406"/><path d="M60.466 57.08c0 4.405-5.206 7.81-11.813 7.81-6.407 0-11.812-3.605-11.812-7.81h23.625z" fill="#008CDB"/><g fill="#008CDB"><path d="M40.244 110.153c0 .4-.2 1.201-.2 2.003v2.603l2.403-1.802s0-1.002.4-2.604c0-.2-2.403-.801-2.603-.2zM44.649 116.161c.6 0 .8-2.604.8-2.604-1.601-.2-2.602-.4-2.602-.4l-2.403 1.802s1.202.401 2.403.601c.6.4 1.602.601 1.802.601z"/><path d="M40.244 110.153s0-.2 0 0c.4-.4.6-.4.801-.4h2.403c1.601.2 2.602.4 2.602.4l2.403-1.803s-1.201-.4-2.403-.6c-.8-.2-1.601-.401-2.002-.401 0 0-.4 0-.6.2-.4.2-2.203 1.602-2.803 2.203-.4 0-.4.4-.4.4zM44.85 116.161s-.201 0 0 0c.4-.2.6-.6.6-.6.2-.602.4-1.403.6-2.404.4-1.602.4-2.604.4-2.604l2.403-1.802v2.603c0 .802-.2 1.603-.2 2.003 0 0 0 .4-.4.601-.4.2-2.203 1.602-2.803 2.203-.4.2-.6 0-.6 0z"/></g></g><path d="M172.586 275.983c-1.201 0-2.202-.801-2.603-2.003l-10.21-50.67c-.201-.601 0-1.402.4-2.003.4-.6 1-1.001 1.601-1.202l29.031-5.808h.601c1.201 0 2.202.801 2.603 2.003l10.21 50.67c.201 1.402-.6 2.804-2.001 3.004l-29.031 6.009h-.601z" fill="#82D8F9"/><path d="M191.606 214.698c1.001 0 2.002.8 2.203 1.802l10.21 50.67c.2 1.202-.6 2.404-1.801 2.604l-29.031 5.808h-.4c-1.002 0-2.003-.8-2.203-1.802l-10.211-50.67c-.2-1.202.6-2.404 1.802-2.604l29.03-5.808h.401zm0-.801h-.6l-29.031 5.808c-.801.2-1.402.6-1.802 1.201-.4.601-.601 1.402-.4 2.203l10.21 50.67c.2 1.403 1.402 2.404 2.803 2.404h.6l29.032-5.808c1.602-.4 2.603-1.803 2.202-3.405l-10.21-50.67c-.2-1.402-1.402-2.403-2.804-2.403z" fill="#008CDB"/><path fill="#008CDB" d="M163.912 227.562l28.061-5.678 8.261 40.83-28.061 5.677z"/><path d="M175.99 295.61c-2.803 0-5.807-.801-8.41-2.604l-8.208-5.407c-3.404-2.203-5.606-5.608-6.407-9.413-.8-3.805 0-7.61 2.202-11.015 2.803-4.206 7.208-6.61 12.013-6.61 2.803 0 5.806.802 8.41 2.604l8.208 5.408c7.007 4.606 8.81 13.418 4.204 20.228-2.803 4.406-7.207 6.809-12.012 6.809z" fill="#00A6FB"/><path d="M167.18 261.162c2.803 0 5.406.801 8.009 2.404 0 0 5.005 3.204 8.209 5.407 6.406 4.206 8.609 12.618 4.004 19.427-2.803 4.206-7.208 6.409-11.412 6.409-2.803 0-5.406-.801-8.009-2.403 0 0-5.005-3.205-8.209-5.408-6.407-4.206-8.609-12.617-4.004-19.427 2.803-4.206 7.007-6.409 11.412-6.409zm0-1.201c-5.005 0-9.61 2.603-12.413 7.01-2.403 3.404-3.204 7.61-2.403 11.415.801 4.006 3.204 7.41 6.607 9.613l8.21 5.408c2.602 1.802 5.605 2.604 8.608 2.604 5.006 0 9.61-2.604 12.414-7.01 4.805-7.21 3.003-16.423-4.205-21.23l-8.209-5.407c-2.602-1.402-5.606-2.403-8.609-2.403z" fill="#008CDB"/><g><path d="M257.477 476.06c-13.014 0-22.624-10.014-22.624-23.432V349.284h-7.408v103.344c0 13.418-9.81 23.432-22.625 23.432-12.813 0-22.624-10.014-22.624-23.432V228.517c0-12.618 10.211-23.032 23.025-23.032h52.056c12.613 0 23.024 10.214 23.024 23.032v224.11c0 13.22-9.81 23.433-22.824 23.433z" fill="#00A6FB"/><path d="M257.277 206.086c12.413 0 22.424 10.014 22.424 22.43v224.112c0 12.617-9.01 22.831-22.024 22.831-13.014 0-22.024-10.414-22.024-22.831V348.684h-8.609v103.944c0 12.617-9.01 22.831-22.023 22.831-13.214 0-22.024-10.414-22.024-22.831V228.517c0-12.417 10.01-22.431 22.424-22.431h51.856zm0-1.002H205.02c-13.014 0-23.626 10.615-23.626 23.433v224.11c0 13.62 10.011 24.034 23.225 24.034 13.214 0 23.225-10.214 23.225-24.033V349.885h6.207v102.743c0 13.619 10.01 24.033 23.225 24.033 13.214 0 23.225-10.214 23.225-24.033V228.517c.4-13.018-10.211-23.433-23.225-23.433z" fill="#008CDB"/></g><path d="M188.603 147.004c0 23.432 19.02 42.66 42.646 42.66 23.425 0 42.645-19.027 42.645-42.66 0-23.633-19.02-42.66-42.645-42.66-23.626.201-42.646 19.227-42.646 42.66z" stroke="#008CDB" stroke-width=".585" fill="#00A6FB"/><g transform="translate(1352.45 116.161)"><path d="M240.057 76.706c21.223 0 38.241-17.224 38.241-38.253C278.298 17.223 261.08.2 240.058.2c-21.224 0-38.242 17.224-38.242 38.253-.2 21.23 17.018 38.253 38.241 38.253z" fill="#00A6FB"/><ellipse fill="#008CDB" cx="215.631" cy="38.453" rx="5.005" ry="5.007"/><ellipse fill="#008CDB" cx="238.656" cy="46.264" rx="5.005" ry="5.007"/><path d="M174.987 334.063c-5.405 0-10.41-2.002-14.415-6.008-4.405-4.006-6.807-9.413-6.807-15.02 0-5.408 2.002-10.616 6.006-14.821 4.004-4.206 17.419-22.03 28.03-36.25l5.206-50.67-.2-113.158c.4-7.61 6.807-13.619 14.415-13.619h10.01l28.23 19.027 15.217-19.027h.2c7.609 0 14.015 5.808 14.416 13.419v119.566l19.821 42.258 7.008 46.064c1.802 11.616-6.207 22.431-17.82 24.234-1 .2-2.202.2-3.203.2-10.411 0-19.42-7.81-21.022-18.025l-7.008-45.864-19.42-43.26-5.607 54.075-38.24 50.07c-3.605 4.406-9.21 6.81-14.817 6.81z" fill="#00A6FB"/><path d="M260.88 85.118c7.608 0 13.614 6.008 14.014 13.619v118.765h-.2l20.022 42.659 7.007 45.863c1.802 11.216-6.006 21.83-17.218 23.433-1.001.2-2.203.2-3.204.2-10.01 0-18.82-7.41-20.422-17.424l-7.007-45.864-20.222-45.463-5.806 56.078-38.04 49.87c-4.005 4.405-9.41 6.609-14.817 6.609-5.005 0-9.81-1.803-14.015-5.809-8.809-8.411-8.409-21.029-.8-29.04 4.204-4.406 18.22-23.232 28.03-36.45l5.205-50.87-.2-112.557c.2-7.61 6.407-13.619 14.015-13.619h9.81l28.43 19.227 15.417-19.227zm0-1.202h-.601l-.4.4-14.616 18.427-27.63-18.626-.2-.2h-10.211c-7.808 0-14.215 6.008-15.016 13.618v1.002l.2 112.556-5.205 50.47c-14.816 20.028-24.627 32.645-27.83 36.05-4.005 4.206-6.207 9.613-6.207 15.22 0 5.809 2.603 11.216 7.008 15.422 4.204 4.006 9.41 6.209 14.815 6.209 5.807 0 11.413-2.403 15.817-7.01l38.041-49.869.2-.2v-.4l5.406-51.673 18.42 41.258 7.007 45.663c1.602 10.615 10.812 18.426 21.423 18.426 1.202 0 2.203 0 3.404-.2 11.813-1.803 20.021-13.019 18.22-24.835l-7.008-45.864v-.4L276.096 217.3V97.335h-.2c-1.002-7.61-7.208-13.419-15.017-13.419z" fill="#008CDB"/><path d="M205.82 197.674c-3.804 0-7.207-1.201-10.41-3.605l-9.01-7.01c-3.604-2.803-6.007-6.609-6.607-11.015-.601-4.406.6-8.812 3.403-12.617 3.404-4.406 8.009-6.81 13.214-6.81 3.804 0 7.208 1.202 10.412 3.605l9.01 7.01c3.603 2.804 6.006 6.61 6.606 11.015.6 4.406-.6 8.812-3.403 12.618-3.404 4.406-8.009 6.81-13.215 6.81z" fill="#00A6FB"/><path d="M196.41 157.218c3.604 0 7.008 1.202 10.011 3.405l9.01 7.01c7.207 5.407 9.01 15.02 3.003 22.831-3.404 4.406-8.009 6.61-12.814 6.61-3.604 0-7.007-1.202-10.01-3.405-3.604-2.804-9.21-7.01-9.21-7.01-7.208-5.408-9.01-15.02-3.004-22.832 3.604-4.406 8.21-6.609 13.014-6.609zm0-1.001c-5.405 0-10.21 2.603-13.614 7.01-3.003 4.005-4.205 8.611-3.604 13.218.6 4.406 3.203 8.411 6.807 11.215l9.21 7.01c3.204 2.403 6.807 3.605 10.812 3.605 5.405 0 10.21-2.604 13.614-7.01 3.003-4.005 4.205-8.612 3.604-13.018-.6-4.406-3.203-8.411-6.807-11.215l-9.01-7.01c-3.604-2.604-7.208-3.805-11.012-3.805zM241.058 62.687c-1.401 5.407-8.81 8.011-16.618 6.008-7.808-2.002-13.014-7.81-11.612-13.218l28.23 7.21z" fill="#008CDB"/><path d="M163.976 128.378l-21.423 4.406c-3.204.601-6.007-2.203-5.206-5.407L149.76 72.7c.601-2.403 2.603-4.406 5.006-5.007l21.423-4.406c3.203-.601 6.006 2.203 5.205 5.407l-12.413 54.676c-.4 2.604-2.403 4.406-5.005 5.007z" stroke="#2187C9" stroke-width=".815" fill="#B5E0F5"/><path d="M92.9 81.513c21.222 0 38.24-17.224 38.24-38.253 0-21.23-17.218-38.253-38.24-38.253-21.223 0-38.241 17.224-38.241 38.253-.2 21.23 17.018 38.253 38.24 38.253zM149.76 153.212c-7.207 0-13.014-4.406-15.616-11.415-3.204-9.013 1.201-18.226 10.21-21.43l10.812-3.805c2.002-.601 4.004-1.002 6.007-1.002 7.207 0 13.014 4.406 15.616 11.416 1.602 4.406 1.402 9.013-.6 12.818-2.002 4.005-5.406 7.01-9.81 8.612l-10.812 3.805c-1.802.6-3.804 1.001-5.807 1.001z" fill="#00A6FB"/><path d="M161.373 116.161c6.607 0 12.413 3.805 15.016 11.015 3.203 9.213-1.602 17.825-10.01 20.83-4.406 1.601-10.812 3.805-10.812 3.805-2.003.6-3.804 1-5.807 1-6.607 0-12.613-3.804-15.016-11.014-3.203-9.213 1.602-17.825 10.011-20.83 4.405-1.601 10.812-3.805 10.812-3.805 1.802-.6 3.804-1 5.806-1zm0-1.202c-2.002 0-4.205.401-6.207 1.002l-10.811 3.805c-9.41 3.205-14.015 12.818-10.612 22.23 2.603 7.21 8.61 11.817 16.017 11.817 2.003 0 4.205-.4 6.207-1.001l10.812-3.805c4.605-1.603 8.008-4.807 10.01-8.813 2.003-4.005 2.203-8.812.601-13.418-2.603-7.21-8.81-11.817-16.017-11.817z" fill="#008CDB"/><ellipse fill="#2486C8" transform="rotate(-76.674 174.788 71.992)" cx="174.788" cy="71.992" rx="2.803" ry="1.602"/><ellipse fill="#008CDB" cx="93.1" cy="50.67" rx="5.005" ry="5.007"/><ellipse fill="#008CDB" cx="118.527" cy="50.67" rx="5.005" ry="5.007"/><path d="M102.51 231.32c-3.604 0-7.408 0-14.015-.2-.2 42.86-.2 95.733-.2 101.541 0 11.216 7.408 20.629 19.62 20.629 12.214 0 19.421-9.213 19.421-20.428l.2-94.732c-4.604-2.203-15.416-6.81-25.026-6.81zM54.458 185.457c4.005 3.405 9.21 4.807 15.417 4.406 7.208-13.018 44.247-79.91 48.652-87.32 1.001-1.603.6-3.606 0-5.208l-7.408 4.006-1.602 1-1.201-1-6.607 11.415-7.208-10.013-1.401 1.802-1.402 1.602-2.002-.8-27.83-12.418-4.805-2.203c-6.006 1.402-10.611 6.81-10.811 13.218v69.096c1.601 4.206 4.004 9.013 8.208 12.417zM127.737 177.046v-73.502c0-1.803-.4-3.605-1.201-5.208.4 2.604 0 5.208-1.402 7.811-4.405 7.61-44.848 80.712-49.253 88.723-.6 3.405-2.803 9.814-8.008 22.832-1.202 2.804-2.203 5.608-3.404 8.211 14.015.4 31.033.801 38.241.801 11.813 0 22.024 4.607 25.027 6.21l.2-45.865-.2-10.013z" fill="#00A6FB"/><path d="M65.07 211.894c3.003-7.81 5.405-14.42 6.006-17.625-7.808.802-14.415-1-19.62-5.407a24.062 24.062 0 0 1-5.206-5.808c-.2-.4-.601-.801-.801-1.202-.2-.2-.4-.6-.4-.8-.201-.201-.201-.401-.401-.602-.2-.2-.2-.6-.4-.8 0-.201-.2-.401-.2-.602-.201-.6-.401-1.001-.802-1.602 0-.2-.2-.4-.2-.4-.2-.2-.2-.601-.4-.802 0-.2-.2-.4-.2-.6-.2-.2-.2-.601-.2-.802 0-.2-.201-.4-.201-.6-.2-.4-.2-.801-.4-1.202 0-.2-.2-.6-.2-.801 0-.2-.2-.4-.2-.6 0-.201-.201-.401-.201-.602 0-.2-.2-.4-.2-.6 0-.2-.2-.601-.2-.802 0-.2 0-.4-.2-.4 0-.4-.2-.801-.2-1.002v-.4c0-.2-.201-.601-.201-.801v-.4c0-.401-.2-.802-.2-1.002l-9.01 7.41c-1.001 1.803-4.805 9.613-7.608 18.225-4.205 12.418-4.805 21.43-1.602 25.436 7.208 9.212 27.03 17.023 33.436 19.226.8-1.802 1.401-3.404 2.202-5.207v-.2c.801-1.603 1.402-3.405 2.203-5.007 1.601-3.805 3.203-7.61 4.605-11.216-1.802-.4-4.405-1.001-7.408-1.802l-3.204 6.609-6.006-3.004 2.803-5.408c-11.412-3.805-24.026-10.414-23.225-21.029l2.803.2c-.6 8.212 9.41 13.82 18.02 17.024 1.2.4 2.402 1.001 3.603 1.402l2.002-4.006 6.007 3.005-1.402 3.004c2.603.8 5.206 1.402 7.008 1.602z" fill="#00A6FB"/><path d="M23.225 211.493c-6.207 0-11.813-3.605-14.816-9.212l-5.206-10.215c-2.002-4.005-2.602-8.612-1.2-12.817 1.2-4.206 4.404-7.811 8.608-10.014 2.603-1.402 5.206-2.003 8.009-2.003 6.207 0 11.813 3.605 14.816 9.213l5.205 10.214c2.003 4.005 2.603 8.612 1.202 12.818-1.202 4.206-4.405 7.81-8.61 10.014-2.602 1.402-5.205 2.002-8.008 2.002z" fill="#00A6FB"/><path d="M18.62 167.833c6.006 0 11.412 3.405 14.215 9.012a1145.02 1145.02 0 0 0 5.206 10.214c4.004 8.012 1.601 17.425-7.008 21.83-2.603 1.403-5.205 2.004-7.608 2.004-6.006 0-11.412-3.405-14.215-9.013-2.002-4.006-5.206-10.214-5.206-10.214-4.004-8.011-1.601-17.424 7.008-21.83 2.402-1.402 5.005-2.003 7.608-2.003zm0-1.002c-2.803 0-5.606.601-8.209 2.003-4.405 2.203-7.608 5.808-8.81 10.214-1.4 4.206-.8 9.013 1.402 13.219L8.21 202.48c3.003 6.008 8.81 9.613 15.216 9.613 2.803 0 5.606-.6 8.209-2.003 4.405-2.203 7.608-5.808 8.81-10.214 1.4-4.206.8-9.012-1.402-13.218l-5.206-10.214c-3.003-6.009-8.81-9.614-15.216-9.614zM115.524 66.692c0 4.206-4.805 7.811-11.012 7.811-6.207 0-11.212-3.204-11.412-7.41l22.424-.4z" fill="#008CDB"/><path d="M58.262 240.133l-.8 2.003-2.003-.601c-.4-.2-5.205-1.803-11.212-4.406l-3.003 30.042c-9.81 13.218-24.026 32.044-28.03 36.45-7.608 8.011-8.209 20.629.801 29.04 8.81 8.412 21.223 7.41 29.031-.8l38.04-49.87 1.803-50.67c-7.608-.2-12.614-.4-20.222-.601-2.603 5.407-4.405 9.413-4.405 9.413zM90.697 102.542l7.809-9.213-26.429-7.61-9.01 4.206zM109.918 99.138l9.01-4.807-5.406-5.608-8.009 3.605z" fill="#00A6FB"/></g><g><g fill="#008CDB"><path d="M1094.774 356.494c26.428 0 48.051-21.63 48.051-48.066 0-26.437-21.623-48.067-48.051-48.067-26.429 0-48.052 21.63-48.052 48.067 0 26.637 21.423 48.066 48.052 48.066zM1150.433 390.341c0-12.217-6.607-20.027-6.607-20.027-6.006-7.811-15.016-12.217-24.826-12.217h-4.605a5.436 5.436 0 0 0-3.404-1.202c-1.001 0-2.002.2-3.003.801l-6.607 4.006c-1.001-.601-2.002-1.002-3.003-1.002h-7.208c-1.201 0-2.203.4-3.003 1.002l-6.607-4.006c-.801-.6-2.003-.801-3.004-.801-1.401 0-2.402.4-3.403 1.202h-17.419c-9.81 0-18.22 4.005-23.425 11.015l4.805 109.552v42.659l5.406-2.003 1.401-.6v111.354c0 14.62 11.012 25.635 25.628 25.635 10.411 0 19.02-5.607 23.225-14.22 4.004 8.613 12.613 14.22 23.225 14.22 14.615 0 25.627-11.015 25.627-25.635V518.719l1.402.601 5.405 2.003V390.342z"/></g><g fill="#2AB6F4"><path d="M1094.774 500.895l-44.648 15.02v114.159c0 11.816 8.81 21.63 21.623 21.63 12.814 0 21.623-9.613 21.623-21.63v-114.76h3.204v114.76c0 11.816 8.809 21.63 21.623 21.63 12.813 0 21.623-9.613 21.623-21.63V515.916l-45.048-15.021zM1050.727 308.428c0-24.234 19.62-43.861 43.846-43.861 24.226 0 43.847 19.627 43.847 43.86 0 24.234-19.62 43.862-43.847 43.862-24.225 0-43.846-19.628-43.846-43.861zm48.051-10.815c-2.202 0-4.205 1.802-4.205 4.206 0 2.403 1.802 4.205 4.205 4.205s4.204-1.802 4.204-4.205c0-2.404-1.801-4.206-4.204-4.206zm23.425 0c-2.202 0-4.204 1.802-4.204 4.206 0 2.403 1.801 4.205 4.204 4.205 2.403 0 4.205-1.802 4.205-4.205 0-2.404-2.003-4.206-4.205-4.206zm-21.022 29.44a7.606 7.606 0 0 0 7.608 7.611h3.003a7.606 7.606 0 0 0 7.608-7.61v-.2h-18.42v.2h.2zm-3.404-1.802h32.835a7.606 7.606 0 0 0-7.608-7.61h-25.027a7.606 7.606 0 0 0-7.608 7.61h7.408zM1109.99 361.1l-7.408 4.407c0 .4.2 1.001 0 1.402l-.8 6.61c0 .4-.201.6-.201.8l8.409 4.807c1.201.6 2.603-.4 2.603-1.803v-14.62c0-1.402-1.402-2.203-2.603-1.602zM1097.577 374.72h-5.606c-.801 0-1.602-.601-1.602-1.402l-.8-6.61c-.201-1 .6-2.002 1.6-2.002h7.209c1 0 1.801.8 1.601 2.003l-.8 6.609c0 .8-.801 1.402-1.602 1.402zM1087.366 373.518l-.801-6.61v-1.401l-7.408-4.406c-1.201-.801-2.603.2-2.603 1.802v14.62c0 1.403 1.402 2.404 2.603 1.803l8.409-4.807c0-.2-.2-.6-.2-1z"/><path d="M1091.97 377.524c-1 0-1.801-.2-2.602-.801l-8.61 4.806c-.6.4-1.4.601-2.202.601-2.602 0-4.605-2.203-4.605-4.807v-15.421h-16.417c-7.608 0-15.217 2.804-20.222 9.213l5.406 101.14.2 6.008v36.851l50.054-17.624V377.123h-1.001v.4zM1119 362.102h-3.604v15.221c0 2.604-2.002 4.807-4.605 4.807-.801 0-1.402-.2-2.203-.6l-8.609-4.807c-.8.6-1.601.8-2.603.8h-1.2v120.368l50.053 17.624V389.54c.2-15.22-12.013-27.438-27.23-27.438z"/></g><path d="M1175.86 459.838c-5.205 0-10.01-2.804-12.813-7.41-3.003-4.807-3.204-10.615-.6-15.422 1.2-2.403 3.203-4.406 5.605-5.808l8.61-5.407c2.602-1.603 5.405-2.404 8.408-2.404 5.206 0 10.011 2.804 12.814 7.41 3.003 4.807 3.204 10.615.6 15.422-1.2 2.403-3.203 4.406-5.605 5.808l-8.61 5.407c-2.602 1.603-5.405 2.404-8.408 2.404z" fill="#2AB6F4"/><path d="M1185.07 424.188c4.605 0 9.21 2.404 12.013 7.01 3.003 4.807 3.003 10.214.6 14.42-1.2 2.203-3.002 4.006-5.205 5.408-3.403 2.203-8.609 5.407-8.609 5.407-2.402 1.602-5.205 2.403-7.808 2.403-4.605 0-9.21-2.403-12.013-7.01-3.003-4.806-3.003-10.214-.6-14.42 1.2-2.202 3.002-4.005 5.205-5.407 3.403-2.203 8.609-5.407 8.609-5.407 2.403-1.603 5.206-2.404 7.808-2.404zm0-2.002c-3.003 0-6.206 1-9.01 2.603l-8.608 5.408c-2.403 1.602-4.605 3.605-6.007 6.208-2.803 5.208-2.603 11.216.6 16.423 3.204 5.007 8.21 8.011 13.816 8.011 3.003 0 6.206-1.001 9.01-2.603l8.608-5.408c2.603-1.602 4.605-3.605 6.007-6.209 2.803-5.207 2.603-11.215-.6-16.422-3.204-5.208-8.21-8.011-13.816-8.011z" fill="#008CDB"/><g><path d="M1179.264 443.816c-.4 0-1 0-1.401-.2l-45.449-10.415c-3.203-.801-5.406-4.006-4.605-7.41l16.017-68.696c.2-1.001 1.202-1.802 2.203-1.802h.6l52.857 12.217c.6.2 1.201.4 1.401 1.001.4.6.4 1.202.2 1.803l-16.017 68.695c-.4 2.804-3.003 4.807-5.806 4.807z" fill="#FFF"/><path d="M1146.229 356.294h.4l52.857 12.217c.8.2 1.201 1.002 1 1.602l-16.016 68.696c-.6 2.403-2.803 4.005-5.206 4.005-.4 0-.8 0-1.201-.2l-45.449-10.415c-2.803-.6-4.605-3.404-4.004-6.208l16.017-68.695c.4-.601.8-1.002 1.602-1.002zm0-1.802c-1.402 0-2.803 1.001-3.003 2.403l-16.018 68.695c-.4 1.803-.2 3.806.801 5.208 1.001 1.602 2.603 2.803 4.405 3.204l45.449 10.414c.6.2 1 .2 1.601.2 3.204 0 6.207-2.202 6.808-5.407l16.017-68.695c.2-.801 0-1.602-.4-2.403-.401-.802-1.202-1.202-2.003-1.402l-52.856-12.217h-.801z" fill="#008CDB"/><path fill="#008CDB" d="M1182.868 435.804l15.216-65.29-51.455-11.816-15.216 65.29z"/><g fill="#FFF"><path d="M1153.236 372.517c.4-1.603 2.002-2.804 3.804-2.404 1.602.4 2.803 2.003 2.403 3.806-.4 1.602-2.002 2.804-3.804 2.403-1.802-.4-2.803-2.003-2.403-3.805zM1160.244 379.126c.2-.601-.2-1.202-.801-1.402l-7.608-1.803c-.6-.2-1.201.2-1.402.802l-.8 3.404c-.2.601.2 1.202.8 1.402l1.202.2.4-2.002h.2l-.4 2.002 4.805 1.202.4-2.003h.2l-.4 2.003 1.201.2c.601.2 1.202-.2 1.402-.8l.8-3.205zM1181.667 393.946c.4-1.602-.6-3.404-2.403-3.805-1.602-.4-3.403.6-3.804 2.403-.4 1.603.6 3.405 2.403 3.806 1.802.4 3.403-.601 3.804-2.404zM1172.657 396.95c.2-.6.801-1 1.402-.8l7.608 1.802c.6.2 1 .801.8 1.402l-.8 3.405c-.2.6-.801 1.001-1.402.8l-1.201-.2.4-2.002h-.2l-.4 2.002-4.805-1.201.4-2.003h-.2l-.4 2.003-1.202-.2c-.6-.2-1.001-.802-.8-1.402l.8-3.605zM1145.828 405.563c.4-1.603 2.003-2.804 3.804-2.404 1.602.4 2.803 2.003 2.403 3.805-.4 1.603-2.002 2.804-3.804 2.404-1.802-.4-2.803-2.203-2.403-3.805zM1152.636 412.172c.2-.601-.2-1.202-.801-1.402l-7.608-1.803c-.601-.2-1.202.2-1.402.801l-.8 3.405c-.2.6.2 1.202.8 1.402l1.201.2.4-2.002h.201l-.4 2.002 4.805 1.202.4-2.003h.2l-.4 2.003 1.201.2c.6.2 1.202-.2 1.402-.8l.8-3.205zM1174.259 426.992c.4-1.602-.6-3.405-2.403-3.805-1.802-.4-3.403.6-3.804 2.403-.4 1.602.6 3.405 2.403 3.806 1.802.2 3.403-.802 3.804-2.404zM1165.25 429.996c.2-.6.8-1.001 1.4-.8l7.609 1.802c.6.2 1 .8.8 1.402l-.8 3.404c-.2.601-.801 1.002-1.402.802l-1.201-.2.4-2.004h-.2l-.4 2.003-4.805-1.201.4-2.003h-.2l-.4 2.003-1.202-.2c-.6-.2-1-.802-.8-1.403l.8-3.605zM1164.448 371.916l-.8 3.405-3.204-.802 2.603 3.405-1.402 6.209 23.025 5.207 2.803-12.417-23.025-5.007zm18.22 8.211l1 .2-.2 1.202-1-.2-1.001-.2-1.002-.2-1-.2-1.202-.201.2-1.202 1.001.2 1.001.2 1.002.2 1.2.201zm-4.405-3.605l1.001.2 1.001.2 1.001.201-.2 1.202-1.001-.2-1.001-.2-1.001-.201.2-1.202zm-.2 2.604l-.2 1.202-1.001-.2-1.001-.201-1.002-.2-1-.2-1.002-.2.2-1.203 1.002.2 1 .201 1.002.2 1 .2 1.002.2zm-5.406-3.805l1.001.2 1.001.2 1.001.2 1.001.2 1.001.2-.2 1.203-1-.2-1.002-.2-1.001-.201-1.001-.2-1.201-.2.4-1.202zm0 2.603l-.2 1.202-1.001-.2-1.001-.2-1.001-.201.2-1.202 1.001.2 1.001.2 1.001.201zm-3.604-3.405l1.001.2 1.001.201 1.001.2-.2 1.202-1-.2-1.002-.2-1.001-.2.2-1.203zm-3.403-.8l1 .2 1.002.2 1 .2-.2 1.202-1-.2-1.002-.2-1-.201.2-1.202zm-.601 2.403l1.001.2 1.001.2 1.001.2 1.001.2-.2 1.202-1.001-.2-1.001-.2-1.001-.2-1.001-.2.2-1.202zm1.602 6.81l-1.001-.201-1.001-.2-1.002-.2.2-1.202 1.002.2 1 .2 1.002.2-.2 1.202zm-.4-2.604l-1.002-.2-1-.201.2-1.202 1 .2 1.001.2 1.002.201 1 .2 1.002.2-.2 1.202-1.002-.2-1-.2-1.002-.2zm6.006 3.805l-1.001-.2-1.001-.2-1.002-.201-1-.2-1.002-.2.2-1.202 1.002.2 1 .2 1.002.2 1 .2 1.002.201-.2 1.202zm-.601-2.604l-1.001-.2-1.001-.2.2-1.202 1.001.2 1.001.2 1.001.2 1.001.201-.2 1.202-1-.2-1.002-.2zm7.008 4.206l-1.002-.2-1-.2-1.002-.2-1-.201-1.002-.2-1-.2.2-1.202 1 .2 1.001.2 1.002.2 1 .2 1.002.201 1 .2-.2 1.202zm-.4-2.804l-1.002-.2-1.001-.2-1.001-.2-1.001-.201.2-1.202 1.001.2 1.001.2 1.001.201 1.001.2 1.001.2 1.001.201 1.002.2 1 .2-.2 1.202-1-.2-1.002-.2-1-.2-1.002-.2zm5.004 3.805l-1-.2-1.002-.2-1-.2-1.002-.2.2-1.202 1.001.2 1.002.2 1 .2 1.002.2-.2 1.202zM1174.459 392.544l-3.203-.8.8-3.405-23.024-5.208-2.803 12.418 23.024 5.207 1.402-6.209 3.804-2.003zm-16.418-5.607l1.002.2 1 .2 1.002.2 1 .2-.2 1.202-1-.2-1.002-.2-1-.2-1.002-.2.2-1.202zm.4 2.603l1.002.2 1.001.2 1.001.201 1.001.2-.2 1.202-1.001-.2-1.001-.2-1.001-.2-1.001-.201-1.001-.2-1.001-.2.2-1.202 1 .2 1.002.2zm-4.003-3.404l1 .2 1.002.2 1 .2-.2 1.202-1-.2-1.002-.2-1-.2.2-1.202zm.6 2.603l1.001.2-.2 1.202-1.001-.2-1.001-.2-1.001-.2.2-1.202 1.001.2 1.001.2zm-5.005-3.605l1 .2 1.002.2 1.001.201 1.001.2-.2 1.202-1.001-.2-1.001-.2-1.001-.2-1.001-.201.2-1.202zm-.6 2.404l1 .2 1.001.2 1.001.2-.2 1.202-1-.2-1.002-.2-1.001-.2.2-1.202zm2.602 7.01l-1.001-.201-1.001-.2-1.001-.2-1.001-.2.2-1.203 1.001.2 1.001.201 1.001.2 1.001.2-.2 1.202zm9.61 2.202l-1-.2-1.002-.2-1-.2-1.002-.2-1.001-.201-1.001-.2-1.001-.2-1.001-.2-1.001-.201.2-1.202 1 .2 1.002.2 1.001.2 1.001.201 1.001.2 1.001.2 1.001.201 1.001.2 1.002.2-.2 1.202zm4.205-4.206l-1.001-.2-1.001-.2-1.001-.2.2-1.202 1 .2 1.002.2 1.001.2-.2 1.202zm.4-2.403l-1-.2-1.002-.2-1.001-.2-1.001-.201.2-1.202 1.001.2 1.001.2 1.001.201 1.001.2-.2 1.202zm2.603.6l-1.001-.2-1.001-.2.2-1.201 1.001.2 1.001.2-.2 1.202zM1157.04 404.761l-.8 3.405-3.204-.801 2.603 3.405-1.402 6.208 23.025 5.208 2.803-12.418-23.025-5.007zm11.012 4.206l1.001.2 1.001.2 1.001.201 1.001.2 1.002.2-.2 1.202-1.002-.2-1-.2-1.002-.2-1.001-.2-1.001-.201.2-1.202zm-.4 2.404l1 .2 1.002.2-.2 1.202-1.001-.2-1.001-.2.2-1.202zm-6.007-3.806l1.001.2 1.001.2 1.002.201 1 .2 1.002.2 1 .2-.2 1.203-1-.2-1.002-.2-1-.201-1.002-.2-1-.2-1.002-.201.2-1.202zm5.406 3.806l-.2 1.201-1.001-.2-1.001-.2-1.001-.2-1.001-.2.2-1.203 1 .2 1.002.201 1.001.2 1.001.2zm-9.01-4.607l1.002.2 1 .2 1.002.201-.2 1.202-1.002-.2-1-.2-1.002-.201.2-1.202zm-.6 2.404l1 .2 1.002.2 1.001.2 1.001.2 1.001.2-.2 1.203-1.001-.2-1.001-.201-1.001-.2-1.001-.2-1.001-.2.2-1.202zm1.802 6.809l-1.001-.2-1.001-.2-1.001-.2.2-1.203 1 .2 1.002.201 1.001.2-.2 1.202zm-.6-2.604l-1.002-.2-1.001-.2.2-1.202 1.001.2 1.001.2 1.001.2 1.001.201 1.002.2-.2 1.202-1.002-.2-1-.2-1.002-.2zm7.007 4.006l-1.001-.2-1.002-.2-1-.2-1.002-.201-1-.2-1.002-.2.2-1.202 1.001.2 1.002.2 1 .2 1.002.2 1 .2 1.002.201-.2 1.202zm4.605 1.001l-1.002-.2-1-.2-1.002-.2-1-.2.2-1.202 1 .2 1.002.2 1 .2 1.002.2-.2 1.202zm3.003-1.802l-1.001-.2-1.001-.2-1.001-.201-1.002-.2-1-.2-1.002-.2-1-.201-1.002-.2-1-.401-1.002-.2-1.001-.2.2-1.202 1.001.2 1.001.2 1.001.2 1.001.2 1.002.201 1 .2 1.002.2 1 .201 1.002.2 1 .2 1.002.2-.2 1.403zm2.603-2.003l-1.002-.2-1-.2-1.002-.2-1-.201-1.002-.2-1-.2.2-1.202 1 .2 1.001.2 1.002.2 1 .2 1.002.201 1 .2-.2 1.202zM1166.85 425.59l-3.203-.8.801-3.406-23.024-5.207-2.803 12.417 23.024 5.208 1.402-6.209 3.804-2.003zm-9.81-4.206l1.001.2 1.002.201 1 .2-.2 1.202-1-.2-1.002-.2-1-.2.2-1.203zm-11.011-2.603l1 .2 1.002.2 1 .2 1.002.2-.2 1.203-1.001-.2-1.001-.2-1.002-.201-1-.2.2-1.202zm-3.604-.801l1 .2 1.002.2 1 .2-.2 1.202-1-.2-1.001-.2-1.001-.2.2-1.202zm.6 6.609l-1-.2-1.002-.2.2-1.202 1.002.2 1 .2-.2 1.202zm-.4-2.604l-1.001-.2.2-1.202 1.001.2 1.001.2 1.001.201 1.001.2 1.001.2 1.002.201-.2 1.202-1.002-.2-1-.2-1.002-.201-1.001-.2-1.001-.2zm6.006 3.806l-1-.2-1.002-.201-1-.2-1.002-.2-1.001-.2.2-1.202 1.001.2 1.001.2 1.001.2 1.002.2 1 .2-.2 1.203zm3.604-1.603l-1-.2-1.002-.2-1.001-.2-1.001-.2.2-1.202 1.001.2 1.001.2 1.001.2 1.001.2-.2 1.202zm2.403.601l-1.001-.2-1.001-.2.2-1.202 1 .2 1.002.2-.2 1.202zm-.4-2.804l-1.002-.2-1-.2-1.002-.2-1-.2.2-1.202 1 .2 1.001.2 1.002.2 1 .2 1.002.2 1 .201-.2 1.402-1-.2-1.002-.4zm6.006 4.006l-1.001-.2-1.001-.2-1.001-.201-1.001-.2-1.002-.2.2-1.202 1.002.2 1 .2 1.002.2 1.001.2 1.001.201-.2 1.202z"/></g></g><g><path d="M1134.616 451.026c-8.208 0-14.415-5.809-15.216-14.02-.6-5.808 1.802-11.015 6.407-14.22 2.202-1.602 4.805-2.403 7.608-2.804l10.211-1h1.602c8.209 0 14.415 5.807 15.216 14.019.6 5.808-1.802 11.015-6.407 14.22-2.202 1.601-4.805 2.403-7.608 2.803l-10.21 1.002c-.602-.2-1.002 0-1.603 0z" fill="#2AB6F4"/><path d="M1145.028 419.982c7.407 0 13.414 5.007 14.215 13.019.6 5.607-2.002 10.414-6.007 13.218-2.002 1.402-4.404 2.403-7.207 2.603-4.005.401-10.211 1.002-10.211 1.002h-1.602c-7.408 0-13.414-5.007-14.215-13.218-.6-5.608 2.002-10.415 6.006-13.219 2.002-1.402 4.405-2.403 7.208-2.603 4.004-.4 10.21-1.002 10.21-1.002.601.2 1.202.2 1.603.2zm0-2.002h-1.802l-10.211 1.001c-3.004.2-5.807 1.202-8.009 3.004-4.805 3.405-7.408 9.013-6.807 15.021.8 8.812 7.608 15.02 16.217 15.02h1.802l10.211-1c3.003-.2 5.806-1.202 8.009-3.005 4.805-3.404 7.408-9.012 6.807-15.02-.801-8.813-7.408-15.021-16.217-15.021z" fill="#008CDB"/></g></g><g transform="translate(380.407)"><path d="M87.895 307.026c-11.212 0-19.62-8.412-19.62-19.627V201.88h-6.007v85.519c0 11.215-8.41 19.627-19.621 19.627-11.212 0-19.621-8.412-19.621-19.627V97.535c0-10.614 8.609-19.226 19.22-19.226h45.85c10.61 0 19.22 8.612 19.22 19.226v189.663c.2 11.416-8.209 19.828-19.42 19.828z" fill="#00A6FB"/><path d="M88.296 79.11c10.21 0 18.62 8.411 18.62 18.626v189.663c0 10.414-7.609 19.026-19.02 19.026-11.413 0-19.021-8.612-19.021-19.026v-86.32h-7.408v86.32c0 10.414-7.608 19.026-19.02 19.026-11.212 0-19.02-8.612-19.02-19.026V97.535c0-10.214 8.408-18.626 18.62-18.626h46.249v.2zm0-1.402h-45.85a19.742 19.742 0 0 0-19.82 19.827V287.4c0 11.616 8.609 20.228 20.221 20.228s20.222-8.612 20.222-20.228V202.48h4.805v84.918c0 11.616 8.609 20.228 20.221 20.228 11.613 0 20.222-8.612 20.222-20.228V97.736c-.2-11.016-9.01-20.028-20.021-20.028z" fill="#008CDB"/><path d="M30.033 36.05c0 19.427 15.817 35.249 35.238 35.249 19.42 0 35.238-15.822 35.238-35.249C100.509 16.623 84.692.801 65.27.801c-19.42-.2-35.238 15.622-35.238 35.249z" stroke="#008CDB" stroke-width=".64" fill="#00A6FB"/><path d="M20.023 133.185c-2.003 0-4.005-1.402-4.605-3.405L1.403 84.517c-.801-2.603.6-5.207 3.203-6.008L36.44 68.495c.4-.2 1.001-.2 1.402-.2 2.002 0 4.004 1.402 4.605 3.404l14.015 45.263c.4 1.202.2 2.604-.4 3.605-.602 1.002-1.603 2.003-2.804 2.404l-31.834 10.013c-.4.2-.8.2-1.401.2z" fill="#82D8F9"/><path d="M37.842 69.496c1.601 0 3.003 1.002 3.603 2.604l14.015 45.263c.601 2.003-.4 4.005-2.402 4.806l-31.834 10.014c-.4.2-.801.2-1.201.2-1.602 0-3.004-1-3.604-2.603L2.404 84.517c-.601-2.003.4-4.005 2.402-4.806L36.64 69.697c.601-.2.801-.2 1.202-.2zm0-2.002c-.601 0-1.202 0-1.802.2L4.206 77.708c-1.402.4-2.603 1.402-3.404 2.804-.8 1.402-.8 3.004-.4 4.406l14.015 45.263c.8 2.403 3.003 4.005 5.606 4.005.6 0 1.2 0 1.801-.2l31.835-10.014c3.003-1.001 4.805-4.206 3.804-7.21L43.448 71.499c-.801-2.403-3.004-4.005-5.606-4.005z" fill="#008CDB"/><path d="M23.626 148.806c-6.206 0-11.212-4.205-12.413-10.414-.6-3.605 0-7.01 2.002-9.613 1.802-2.604 4.805-4.406 8.209-5.007l8.009-1.402c.8-.2 1.601-.2 2.402-.2 6.207 0 11.212 4.205 12.413 10.414.601 3.605 0 7.01-2.002 9.613-1.802 2.604-4.805 4.406-8.208 5.007l-8.009 1.402c-.8.2-1.602.2-2.403.2z" fill="#00A6FB"/><path d="M32.035 122.97c5.406 0 10.211 3.606 11.413 9.614 1.2 6.81-3.004 12.417-9.41 13.619 0 0-4.806.8-8.009 1.402-.8.2-1.402.2-2.202.2-5.406 0-10.211-3.605-11.413-9.613-1.2-6.81 3.004-12.418 9.41-13.62 0 0 4.806-.8 8.009-1.401.8-.2 1.402-.2 2.202-.2zm0-2.002c-.8 0-1.802 0-2.602.2l-8.009 1.402c-3.604.6-6.807 2.604-8.81 5.408-2.202 3.004-2.802 6.609-2.202 10.414 1.202 6.61 6.607 11.216 13.415 11.216.8 0 1.802 0 2.602-.2l8.009-1.403c3.604-.6 6.807-2.603 8.81-5.407 2.202-3.004 2.802-6.61 2.202-10.415-1.202-6.609-6.808-11.215-13.415-11.215z" fill="#008CDB"/><path d="M102.911 189.863c-2.602 0-5.205-.8-7.408-2.403-3.003-2.003-4.805-5.007-5.405-8.412-.601-3.204.2-6.609 2.202-9.413l4.805-6.81c2.403-3.404 6.207-5.407 10.211-5.407 2.603 0 5.206.801 7.408 2.404 3.003 2.002 4.805 5.007 5.406 8.411.6 3.205-.2 6.61-2.203 9.413l-4.805 6.81c-2.202 3.405-6.206 5.407-10.21 5.407z" fill="#00A6FB"/><path d="M107.516 158.62c2.203 0 4.605.801 6.808 2.203 5.606 4.006 6.607 11.015 2.803 16.223 0 0-2.803 4.005-4.806 6.809-2.202 3.204-5.806 5.007-9.41 5.007-2.202 0-4.605-.801-6.807-2.203-5.606-4.006-6.607-11.015-2.803-16.223 0 0 2.803-4.005 4.805-6.81 2.203-3.203 5.806-5.006 9.41-5.006zm0-2.003c-4.404 0-8.409 2.203-11.012 6.009l-4.805 6.809c-2.202 3.004-3.003 6.61-2.402 10.014.6 3.605 2.603 6.81 5.806 9.012 2.403 1.603 5.206 2.604 8.009 2.604 4.404 0 8.409-2.203 11.011-6.008l4.805-6.81c2.203-3.004 3.004-6.609 2.403-10.014-.6-3.605-2.603-6.81-5.806-9.012-2.403-1.803-5.206-2.604-8.009-2.604z" fill="#008CDB"/><ellipse fill="#008CDB" cx="69.876" cy="45.463" rx="4.405" ry="4.406"/><ellipse fill="#008CDB" cx="47.652" cy="45.463" rx="4.405" ry="4.406"/><path d="M50.255 59.082c0 2.203 4.805 3.805 10.811 3.805 6.007 0 10.812-1.802 10.812-3.805H50.255z" fill="#008CDB"/><g fill="#2486C8"><path d="M32.236 104.745c-.4.2-1.202.4-1.802.601-1.402.4-2.403.6-2.403.6l1.402-2.803s1-.2 2.602-.801c-.4 0 .601 2.203.2 2.403zM25.428 101.741c0-.6 2.403-1.202 2.403-1.202.4 1.603 1.001 2.404 1.001 2.404l-1.402 2.804s-.6-1.002-1.2-2.203c-.401-.802-.802-1.803-.802-1.803z"/><path d="M32.236 104.745l.2-.2c.2-.2.2-.6.2-.6-.2-.602-.4-1.403-.6-2.404-.401-1.602-1.002-2.404-1.002-2.404l1.402-2.803s.6 1.001 1.201 2.203c.4.8.6 1.602.801 2.002 0 0 .2.401 0 .601-.2.4-1.201 2.404-1.402 3.205-.4.4-.6.4-.8.4zM25.428 101.54c0-.4.4-.6.4-.8.601-.2 1.402-.801 2.203-1.002 1.402-.6 2.403-.8 2.403-.8l1.401-2.805s-1.201.2-2.402.601c-.801.2-1.602.4-2.003.601 0 0-.4 0-.4.4l-1.602 3.205c-.2.4 0 .6 0 .6z"/></g></g><g><path d="M129.74 206.887c-.6 0-1.001-.2-1.401-.4l-24.627-16.824c-.6-.4-1-1.001-1-1.602-.201-.601 0-1.402.4-2.003l29.03-42.66c.401-.8 1.202-1.2 2.203-1.2.6 0 1.001.2 1.401.4l24.627 16.823c1.201.801 1.401 2.403.6 3.605l-29.03 42.66c-.601.8-1.402 1.2-2.203 1.2z" fill="#82D8F9"/><path d="M134.145 142.598c.4 0 .8.2 1.201.4l24.626 16.824c1.001.8 1.402 2.203.601 3.204l-29.031 42.66c-.4.6-1.201 1-1.802 1-.4 0-.8-.2-1.201-.4l-24.627-16.823c-1-.801-1.401-2.203-.6-3.205l29.03-42.659c.401-.6 1.202-1.001 1.803-1.001zm0-.601c-1.001 0-1.802.4-2.403 1.202l-29.03 42.86c-.401.6-.602 1.401-.401 2.202.2.801.6 1.402 1.2 1.803l24.627 16.823c.4.4 1.001.6 1.602.6 1.001 0 1.802-.4 2.403-1.2l29.03-42.86c1.002-1.402.601-3.205-.8-4.006l-24.627-16.823c-.4-.4-1-.601-1.601-.601z" fill="#008CDB"/><path fill="#008CDB" d="M108.47 183.94l23.454-34.412 23.665 16.13-23.455 34.411z"/><path d="M123.734 224.712c-7.208 0-12.814-4.807-14.216-12.017-1.601-8.211 3.404-15.622 11.613-17.224l9.81-1.802c1.001-.2 2.002-.2 3.004-.2 7.207 0 12.813 4.806 14.215 12.016.8 4.006 0 7.81-2.203 11.015-2.202 3.205-5.606 5.408-9.61 6.209l-9.81 1.802c-.801.2-1.802.2-2.803.2z" fill="#00A6FB"/><path d="M133.945 194.07c6.607 0 12.213 4.205 13.614 11.415 1.602 8.211-3.604 15.02-11.212 16.423-3.804.8-9.81 1.802-9.81 1.802-1.001.2-2.003.2-2.803.2-6.607 0-12.213-4.205-13.615-11.415-1.602-8.212 3.604-15.021 11.212-16.423 3.804-.801 9.81-1.803 9.81-1.803 1.002 0 1.802-.2 2.804-.2zm0-1.202c-1.002 0-2.003 0-3.004.2l-9.81 1.802c-8.61 1.603-13.815 9.213-12.213 17.825 1.401 7.41 7.408 12.417 14.816 12.417 1 0 2.002 0 3.003-.2l9.81-1.803c4.205-.8 7.608-3.004 9.81-6.408 2.203-3.205 3.004-7.41 2.203-11.416-1.201-7.41-7.208-12.417-14.615-12.417z" fill="#008CDB"/><g><path d="M76.283 470.653c-13.014 0-22.624-10.014-22.624-23.433V343.877H46.25V447.22c0 13.419-9.81 23.433-22.625 23.433-12.813 0-22.624-10.014-22.624-23.433V223.11c0-12.618 10.211-23.033 23.025-23.033h52.256c12.613 0 23.024 10.215 23.024 23.032V447.22c-.4 13.219-10.21 23.433-23.024 23.433z" fill="#00A6FB"/><path d="M75.882 200.678c12.414 0 22.424 10.014 22.424 22.431V447.22c0 12.417-9.01 22.832-22.023 22.832-13.214 0-22.024-10.214-22.024-22.832V343.276H45.65V447.22c0 12.417-9.01 22.832-22.024 22.832-13.014 0-22.023-10.214-22.023-22.832V223.11c0-12.418 10.01-22.432 22.424-22.432h51.855zm0-1.201H23.626c-13.014 0-23.625 10.614-23.625 23.632V447.22c0 13.62 10.01 24.034 23.225 24.034 13.214 0 23.225-10.215 23.225-24.034V344.478h6.206V447.22c0 13.62 10.011 24.034 23.225 24.034 13.215 0 23.225-10.215 23.225-24.034V223.11c.4-13.019-10.21-23.633-23.225-23.633z" fill="#008CDB"/></g><path d="M49.854 99.137c-23.625 0-42.645 19.027-42.645 42.46 0 23.432 19.02 42.659 42.645 42.659 23.426 0 42.646-19.027 42.646-42.66 0-23.632-19.22-42.459-42.646-42.459z" stroke="#008CDB" stroke-width=".585" fill="#00A6FB"/></g><g><path d="M350.977 637.284c-15.617 0-27.43-11.816-27.43-27.438V490.88h-8.208v118.965c0 15.622-11.813 27.438-27.43 27.438-15.616 0-27.429-11.816-27.429-27.438V362.903c0-24.434 19.821-44.06 44.047-44.06h46.65c14.816 0 26.829 12.016 26.829 26.836v264.167c.4 15.822-11.412 27.438-27.029 27.438z" fill="#2AB6F4"/><path d="M351.578 319.844c14.215 0 25.827 11.616 25.827 25.835v264.167c0 14.62-10.611 26.436-26.428 26.436-15.617 0-26.428-12.016-26.428-26.436V489.879h-10.211v119.967c0 14.62-10.612 26.436-26.429 26.436-15.616 0-26.428-12.016-26.428-26.436V362.903c0-23.833 19.22-43.06 43.046-43.06h47.05zm0-2.003h-46.65c-24.827 0-45.049 20.228-45.049 45.062v246.943c0 16.222 12.214 28.44 28.43 28.44 16.218 0 28.431-12.218 28.431-28.44V491.882h6.207v117.964c0 16.222 12.213 28.44 28.43 28.44 16.218 0 28.43-12.218 28.43-28.44V345.679c-.4-15.22-13.013-27.838-28.23-27.838z" fill="#008CDB"/><path d="M334.76 308.428c-26.629 0-48.452-21.83-48.452-48.467s21.823-48.468 48.452-48.468c26.628 0 48.452 21.83 48.452 48.468 0 26.637-21.624 48.467-48.452 48.467zm-9.01-20.228c-.2 0-.2 0-.4.2s-.2.2-.2.4 0 .401.2.401c3.403 3.605 9.21 5.608 15.816 5.608 6.608 0 12.414-2.203 15.817-5.608.2-.2.2-.2.2-.4s0-.401-.2-.401c-.2-.2-.2-.2-.4-.2 0 0-.2 0-.4.2-3.004 3.204-8.81 5.207-15.017 5.207-6.206 0-11.812-2.003-15.016-5.207-.2-.2-.4-.2-.4-.2zm30.633-27.438c-2.203 0-4.205 1.802-4.205 4.206 0 2.403 1.802 4.205 4.205 4.205 2.402 0 4.204-1.802 4.204-4.205-.2-2.204-2.002-4.206-4.204-4.206zm-28.63 0c-2.203 0-4.205 1.802-4.205 4.206 0 2.403 1.802 4.205 4.204 4.205 2.403 0 4.205-1.802 4.205-4.205-.2-2.204-2.003-4.206-4.205-4.206z" fill="#2AB6F4"/><path d="M334.76 212.495c26.228 0 47.45 21.23 47.45 47.466s-21.222 47.465-47.45 47.465-47.451-21.23-47.451-47.465c0-26.237 21.223-47.466 47.45-47.466zm21.623 57.68c2.803 0 5.205-2.404 5.205-5.207 0-2.804-2.402-5.208-5.205-5.208s-5.206 2.404-5.206 5.208c0 2.803 2.203 5.207 5.206 5.207zm-28.63 0c2.802 0 5.205-2.404 5.205-5.207 0-2.804-2.403-5.208-5.206-5.208-2.803 0-5.205 2.404-5.205 5.208 0 2.803 2.202 5.207 5.205 5.207zm13.413 25.635c6.808 0 13.014-2.203 16.618-6.008.6-.6.6-1.602 0-2.203-.4-.2-.8-.4-1-.4-.401 0-.802.2-1.202.4-3.003 3.004-8.41 5.007-14.215 5.007-5.807 0-11.413-2.003-14.216-5.007-.4-.4-.8-.4-1.2-.4-.401 0-.802.2-1.002.4-.6.6-.6 1.602 0 2.203 3.204 3.805 9.41 6.008 16.217 6.008zm-6.406-85.318c-27.23 0-49.453 22.23-49.453 49.469 0 27.237 22.223 49.468 49.453 49.468 27.229 0 49.453-22.23 49.453-49.468 0-27.238-22.224-49.47-49.453-49.47zM254.874 455.832l-5.206-7.61c110.519-76.907 114.523-132.584 114.523-133.185l9.21.4c-.2 2.404-4.405 60.885-118.527 140.395z" fill="#008CDB"/><g><path d="M389.018 421.184c-.4 0-1.001 0-1.402-.2l-45.448-10.415c-3.404-.8-5.406-4.205-4.605-7.41l14.816-64.089c.6-2.804 3.203-4.806 6.006-4.806.4 0 1.001 0 1.401.2l45.45 10.414c3.403.801 5.405 4.206 4.604 7.41l-14.816 64.09c-.6 2.803-3.203 4.806-6.006 4.806z" fill="#FFF"/><path d="M358.385 335.065c.4 0 .8 0 1.201.2l45.449 10.414c2.803.601 4.605 3.405 4.004 6.21l-14.816 64.088c-.6 2.403-2.803 4.005-5.205 4.005-.4 0-.801 0-1.202-.2l-45.448-10.414c-2.803-.601-4.605-3.405-4.005-6.209l14.816-64.089c.801-2.203 2.803-4.005 5.206-4.005zm0-2.003c-3.404 0-6.407 2.403-7.008 5.608l-14.815 64.089c-.4 1.802-.2 3.805 1 5.407 1.002 1.602 2.603 2.804 4.606 3.205l45.448 10.414c.6.2 1.001.2 1.602.2 3.404 0 6.407-2.403 7.007-5.608l14.816-64.088c.4-1.803.2-3.806-1-5.408-1.002-1.602-2.604-2.804-4.606-3.204l-45.448-10.415c-.4 0-1.001-.2-1.602-.2z" fill="#008CDB"/><g fill="#2486C8"><path d="M368.996 373.919c-.2.6-.4 1.602-.6 2.603-.4 1.803-.601 3.405-.601 3.405l3.804-2.003s.2-1.402 1.001-3.605c0 0-3.203-1.201-3.604-.4zM374.002 382.931c.8 0 1.601-3.405 1.601-3.405-2.202-.6-3.603-1.201-3.603-1.201l-3.805 2.003s1.602.8 3.204 1.401c1 .802 2.202 1.202 2.603 1.202-.2 0 0 0 0 0z"/><path d="M368.996 373.718s.2 0 .2-.2c.4-.2.801-.2 1.002-.2.8.2 2.002.4 3.203.6 2.202.601 3.604 1.202 3.604 1.202l3.804-2.002s-1.402-.802-3.203-1.402c-1.202-.401-2.203-.802-2.803-1.002 0 0-.4-.2-1.002 0-.6.2-3.203 1.803-4.404 2.203-.2.2-.4.601-.4.801zM374.002 383.131s0-.2 0 0l.2-.2c.4-.2.6-.6.6-.6.401-.802.801-2.003 1.402-3.005.8-2.003 1.001-3.605 1.001-3.605l3.804-2.003s-.2 1.603-.6 3.405c-.2 1.202-.601 2.203-.601 2.804 0 0 0 .4-.6.801-.601.2-3.204 1.803-4.405 2.403h-.801z"/></g><path d="M346.172 421.184c-4.805 0-9.61-2.203-13.014-6.208l-7.408-8.612c-3.003-3.605-4.605-8.012-4.205-12.618.4-4.406 2.403-8.612 6.007-11.816 3.404-2.804 7.208-4.406 11.212-4.406 4.805 0 9.61 2.203 13.014 6.208l7.408 8.612c6.407 7.41 5.606 18.025-1.802 24.434-3.204 3.004-7.008 4.406-11.212 4.406z" fill="#2AB6F4"/><path d="M338.764 378.725c4.605 0 9.01 2.003 12.213 5.808 0 0 4.405 5.208 7.408 8.612 5.806 6.61 5.606 16.623-1.802 23.032-3.203 2.804-7.007 4.206-10.611 4.206-4.605 0-9.01-2.003-12.213-5.808 0 0-4.405-5.207-7.408-8.612-5.807-6.61-5.606-16.623 1.802-23.032 3.203-3.004 7.007-4.206 10.61-4.206zm0-2.003c-4.405 0-8.41 1.603-12.013 4.607-3.804 3.204-6.006 7.61-6.407 12.417-.4 4.807 1.201 9.613 4.605 13.419l7.408 8.612c3.604 4.205 8.61 6.609 13.815 6.609 4.405 0 8.409-1.602 12.013-4.607 7.808-6.809 8.81-17.824 2.002-25.835l-7.408-8.612c-3.804-4.206-8.81-6.61-14.015-6.61z" fill="#008CDB"/><g><path d="M392.221 431.198c-4.805 0-9.21-2.003-12.613-5.808-3.204-3.605-5.006-8.011-4.605-12.618.2-4.406 2.402-8.611 5.806-11.816l8.409-7.81c3.203-3.005 7.408-4.607 11.813-4.607 4.805 0 9.21 2.003 12.613 5.808 3.204 3.605 5.005 8.011 4.605 12.617-.2 4.407-2.403 8.612-5.806 11.817l-8.41 7.81c-3.203 3.005-7.407 4.607-11.812 4.607z" fill="#2AB6F4"/><path d="M401.03 389.74c4.205 0 8.61 1.803 12.013 5.408 6.608 7.21 5.606 17.024-1 23.032 0 0-5.006 4.606-8.41 7.81-3.203 2.805-7.007 4.407-11.011 4.407-4.205 0-8.61-1.803-12.013-5.408-6.607-7.21-5.606-17.023 1-23.032 0 0 5.006-4.606 8.41-7.81 3.003-2.804 7.007-4.406 11.012-4.406zm0-2.002c-4.604 0-9.009 1.802-12.413 4.806l-8.409 7.811c-3.604 3.405-5.806 7.811-6.206 12.417-.2 4.807 1.401 9.614 5.005 13.42 3.604 4.005 8.409 6.208 13.414 6.208 4.605 0 9.01-1.803 12.414-5.007l8.409-7.811c3.604-3.405 5.806-7.81 6.206-12.417.2-4.807-1.401-9.614-5.005-13.419-3.604-3.805-8.409-6.008-13.414-6.008z" fill="#008CDB"/></g></g></g><g><path d="M739.193 198.075h-.6l-29.032-5.808c-.8-.2-1.401-.601-1.802-1.202-.4-.6-.6-1.402-.4-2.003l10.21-50.47c.2-1.201 1.402-2.203 2.603-2.203h.601l29.031 5.808c1.402.4 2.403 1.803 2.203 3.205l-10.211 50.47c-.2 1.201-1.202 2.203-2.603 2.203z" fill="#B4E5F9"/><path d="M720.373 136.79h.4l29.031 5.808c1.201.2 2.002 1.402 1.802 2.603l-10.21 50.47c-.201 1.002-1.202 1.803-2.203 1.803h-.4l-29.032-5.808c-1.201-.2-2.002-1.402-1.802-2.604l10.211-50.47c.2-1.001 1.202-1.802 2.203-1.802zm0-1.002c-1.602 0-2.803 1.002-3.204 2.604l-10.21 50.47c-.2.801 0 1.802.4 2.403.4.801 1.201 1.202 2.002 1.402l29.031 5.808h.6c1.602 0 2.804-1.001 3.204-2.603l10.211-50.47c.2-.801 0-1.803-.4-2.404-.4-.8-1.202-1.201-2.003-1.402l-29.03-5.808h-.601z" fill="#008CDB"/><path fill="#008CDB" d="M711.596 184.704l8.218-40.62 27.874 5.64-8.219 40.62z"/><g fill="#B4E5F9"><path d="M718.77 173.841l1.202.2 1.001.2 1.202.2 1 .201 1.202.4 1.001.201 1.201.2.2-1.402-1-.2-1.202-.2-1-.2-1.202-.401-1.001-.2-1.202-.2-1-.2-1.202-.201-1.001-.2-.4 1.201 1.2.4zM729.583 174.642l-1.002-.2-1.2-.2-.201 1.201 1.001.4 1.201.201 1.001.2.4-1.401zM724.377 149.608l1.602.4 1.601.2 1.402.4 1.602.401 1.601.2 1.602.401 1.602.4.4-2.002-1.602-.4-1.601-.2-1.602-.401-1.602-.4-1.401-.201-1.602-.4-1.602-.401-1.601-.2-1.602-.401-.4 2.003 1.601.2zM739.593 150.81l-1.601-.401-1.402-.2-.6 1.802 1.601.4 1.602.4 1.602.201.4-1.802zM718.17 176.845l1.202.2 1 .2.401-1.401-1.201-.2-1.201-.2-1.002-.401-1.2-.2-.201 1.401 1.001.2zM723.176 177.847l1 .2 1.202.2.2-1.402-1-.2-1.202-.2-1.001-.2-1.201-.2-.2 1.2 1 .401zM728.181 178.848l.2-1.402-1-.2-1.202-.2-.2 1.402 1 .2zM717.57 179.65l1 .2 1.202.4 1.001.2.4-1.402-1.2-.2-1.002-.4-1.201-.2-1.001-.201-1.201-.2-.2 1.402 1 .2zM724.777 181.251l1.001.2.4-1.401-1.2-.2-1.001-.2-1.202-.201-1-.4-.401 1.401 1.201.2 1.001.401zM716.969 182.653l1.001.2 1.201.2 1.001.201.4-1.201-1.2-.401-1.001-.2-1.202-.2-1-.2-1.202-.201-.2 1.402 1 .2zM723.376 182.453l-1.201-.2-1.001-.2-.4 1.401 1.2.2 1.001.201zM725.979 183.054l-1.001-.2-1.202-.2-.2 1.401 1.001.2 1.201.2 1.202.201 1 .4.401-1.401-1.201-.2zM733.186 176.845l1.001.2 1.202.2.2-1.401-1.001-.2-1.201-.2-1.001-.2-1.202-.201-.2 1.402 1.001.2zM737.39 176.244l-1.2-.2-.2 1.402 1 .2 1.202.2 1 .2.401-1.401-1.201-.2zM727.78 180.45l-1.2-.2-.2 1.202 1 .4 1.201.2 1.202.2.2-1.401-1.201-.2zM732.386 178.247l-1.202-.2-1-.2-1.202-.2-.2 1.401 1 .2 1.202.2 1.001.201 1.201.2 1.001.401.4-1.402-1.2-.4zM733.787 181.652l-1.201-.2-1.001-.2-1.202-.2-.2 1.401 1.001.2 1.202.2 1 .2 1.202.201 1.001.2.4-1.401-1.2-.2zM737.39 179.449l-1.2-.4-1.001-.2-.4 1.401 1.2.2 1.001.2 1.202.401 1 .2.401-1.402-1.201-.2zM723.376 156.818c.4-1.603 2.002-2.604 3.404-2.204 1.601.401 2.602 2.003 2.202 3.405-.4 1.602-2.002 2.604-3.404 2.203-1.401-.4-2.402-1.802-2.202-3.404zM734.988 158.62c.4-1.602 2.002-2.604 3.404-2.203 1.602.4 2.603 2.003 2.202 3.405-.4 1.602-2.002 2.603-3.403 2.203-1.602-.2-2.603-1.803-2.203-3.405zM724.577 166.03l.2-.6c.2-.802 1.001-1.402 2.003-1.202l1.801.4c-.8-.8-1.2-2.002-1-3.204l-5.607-1.202c-.6-.2-1.2.2-1.2.801l-.602 3.205c-.2.6.2 1.201.801 1.201l1.001.2.4-2.002h.401l-.4 2.003 2.202.4zM741.395 164.829c.2-.601-.2-1.202-.8-1.202l-6.207-1.402v.801c-.2 1.202-1.202 2.203-2.203 2.604l1.602.4v-.4h.4v.4c.801.2 1.202 1.002 1.202 1.803l3.003.6.4-2.002h.4l-.4 2.003 1.001.2c.601.2 1.202-.2 1.202-.801l.4-3.004z"/><path d="M728.181 161.424c.4-1.602 2.002-2.604 3.404-2.203 1.601.4 2.602 2.003 2.202 3.405-.4 1.602-2.002 2.603-3.404 2.203-1.601-.2-2.602-1.803-2.202-3.405zM734.588 167.633c.2-.601-.2-1.202-.801-1.202l-7.007-1.602c-.601-.2-1.202.2-1.202.8l-.6 3.205c-.2.601.2 1.202.8 1.202l1.002.2.4-2.003h.4l-.4 2.003 4.605 1.002.4-2.003h.4l-.4 2.003 1.001.2c.601.2 1.202-.2 1.202-.801l.2-3.004z"/></g><path d="M735.99 217.702c-4.806 0-9.41-2.403-12.214-6.81-4.605-7.01-2.803-16.022 4.205-20.628l8.209-5.408c2.602-1.802 5.405-2.603 8.409-2.603 4.805 0 9.41 2.403 12.213 6.81a16.052 16.052 0 0 1 2.402 11.215c-.8 3.805-3.003 7.21-6.407 9.413l-8.208 5.407c-2.803 1.803-5.606 2.604-8.61 2.604z" fill="#00A6FB"/><path d="M744.599 183.054c4.404 0 8.609 2.203 11.412 6.409 4.605 7.01 2.402 15.22-4.004 19.427-3.204 2.203-8.21 5.407-8.21 5.407a14.435 14.435 0 0 1-8.008 2.404c-4.405 0-8.609-2.203-11.412-6.41-4.605-7.01-2.403-15.22 4.004-19.426 3.204-2.203 8.209-5.408 8.209-5.408 2.603-1.402 5.206-2.403 8.009-2.403zm0-1.602c-3.204 0-6.207 1.001-9.01 2.804l-8.209 5.407c-7.408 5.007-9.41 14.42-4.405 21.83 3.004 4.607 7.809 7.21 13.014 7.21 3.204 0 6.207-1.001 9.01-2.804l8.209-5.407c3.604-2.403 6.006-6.008 6.807-10.014.801-4.006 0-8.211-2.402-11.816-3.204-4.607-7.809-7.21-13.014-7.21z" fill="#008CDB"/><g><path d="M692.142 423.588c-13.014 0-22.824-10.215-22.824-23.633V297.413h-6.807v102.542c0 13.418-9.81 23.633-22.825 23.633-13.014 0-22.824-10.215-22.824-23.633v-223.11c0-12.818 10.41-23.232 23.225-23.232h52.055c12.814 0 23.225 10.414 23.225 23.232v223.11c-.4 13.418-10.21 23.632-23.225 23.632z" fill="#00A6FB"/><path d="M691.742 154.614c12.213 0 22.224 10.014 22.224 22.231v223.11c0 12.417-8.81 22.631-22.024 22.631s-22.023-10.214-22.023-22.631V296.41h-8.61v103.343c0 12.418-8.809 22.632-22.023 22.632s-22.024-10.214-22.024-22.632V176.645c0-12.217 10.01-22.23 22.224-22.23l52.256.2zm0-1.802h-52.056c-13.214 0-24.025 10.815-24.025 24.033v223.11c0 14.02 10.21 24.434 23.825 24.434 13.615 0 23.826-10.415 23.826-24.434V298.214h5.005v101.74c0 14.02 10.21 24.435 23.825 24.435 13.615 0 23.826-10.415 23.826-24.434v-223.11c-.2-13.218-11.012-24.033-24.226-24.033z" fill="#008CDB"/></g><path d="M665.714 53.274c-23.425 0-42.445 19.026-42.445 42.459 0 23.432 19.22 42.459 42.445 42.459 23.425 0 42.446-19.027 42.446-42.46 0-23.432-19.02-42.458-42.446-42.458z" stroke="#008CDB" stroke-width=".877" fill="#00A6FB"/></g><g><path d="M784.241 196.072c-2.603 0-4.605-1.803-5.206-4.206l-10.41-57.28c-.2-1.201.6-2.202 1.601-2.403l44.047-8.01h.4c1.002 0 1.803.8 2.003 1.601l10.411 57.28c.2 1.402 0 2.804-.8 4.005-.802 1.202-2.003 2.003-3.405 2.203l-37.84 7.01c-.2-.2-.4-.2-.8-.2z" fill="#B4E5F9"/><path d="M814.874 124.973c.6 0 1.001.4 1.201 1.002l10.411 57.28c.4 2.402-1.201 4.606-3.403 5.006l-37.84 7.01h-.802c-2.002 0-3.804-1.402-4.204-3.605l-10.411-57.28c-.2-.6.4-1.201 1-1.402l44.048-8.01zm0-1.802h-.6l-44.048 8.01c-1.602.201-2.603 1.803-2.403 3.406l10.412 57.28c.6 3.003 3.003 5.006 6.006 5.006h1.001l37.84-7.01c1.602-.2 3.004-1.201 4.005-2.603 1.001-1.402 1.201-3.004 1.001-4.607l-10.21-57.079c-.201-1.402-1.603-2.403-3.004-2.403z" fill="#008CDB"/><path fill="#008CDB" d="M821.881 179.249l-8.809-49.269-38.842 7.21 8.81 49.269z"/><g fill="#B4E5F9"><path d="M781.238 142.998c-.2-1.402.6-2.804 2.002-3.004 1.402-.2 2.803.601 3.003 2.003.2 1.402-.6 2.804-2.002 3.004-1.401.2-2.803-.6-3.003-2.003zM788.646 145.802c-.2-.4-.6-.8-1.001-.8l-6.407 1.2c-.6 0-.801.602-.801 1.002l.6 2.804c0 .6.601.801 1.202.801l1.001-.2-.4-1.803h.2l.4 1.803 4.005-.801-.4-1.803h.2l.4 1.803 1-.2c.601 0 .802-.601.802-1.202l-.801-2.604zM809.668 150.008c-.2-1.402-1.601-2.403-3.003-2.003-1.401.2-2.402 1.602-2.002 3.004.2 1.402 1.602 2.404 3.003 2.003 1.402-.4 2.403-1.602 2.002-3.004zM803.862 155.215c0-.6.2-1.001.8-1.001l6.408-1.202c.6 0 1 .2 1 .801l.602 2.804c0 .601-.2 1.002-.801 1.202l-1.001.2-.4-1.802h-.201l.4 1.802-4.004.801-.4-1.802h-.2l.4 1.802-1.001.2c-.6 0-1.001-.2-1.201-.8l-.4-3.005zM786.243 170.436c-.2-1.402.6-2.804 2.002-3.004 1.402-.2 2.803.601 3.004 2.003.2 1.402-.601 2.804-2.003 3.004-1.401.2-2.803-.4-3.003-2.003zM793.651 173.24c-.2-.4-.6-.8-1-.8l-6.408 1.2c-.6 0-.8.602-.8 1.002l.6 2.804c0 .6.6.801 1.201.801l1.001-.2-.4-1.803h.2l.4 1.803 4.005-.801-.4-1.803h.2l.4 1.803 1.001-.2c.6 0 .801-.601.801-1.202l-.8-2.604zM814.874 177.446c-.2-1.402-1.602-2.403-3.003-2.003-1.402.2-2.403 1.603-2.002 3.005.2 1.401 1.601 2.403 3.003 2.002 1.401-.2 2.202-1.602 2.002-3.004zM808.867 182.653c0-.6.2-1.001.801-1.001l6.407-1.202c.6 0 1.001.2 1.001.801l.6 2.804c0 .601-.2 1.002-.8 1.202l-1.001.2-.4-1.802h-.2l.4 1.802-4.005.801-.4-1.802h-.2l.4 1.802-1 .2c-.601 0-1.002-.2-1.202-.8l-.4-3.005zM789.447 138.792l.6 2.804-2.602.4 3.003 1.803 1 5.208 19.221-3.605-2.002-10.215-19.22 3.605zm16.417.401l.801-.2.2 1.001-.8.2-.801.2-.801.201-.801.2-.801.2-.2-1 .8-.201.802-.2.8-.2.801-.2zm-4.605-1.202l.801-.2.801-.2.8-.2.201 1-.8.201-.802.2-.8.2-.2-1zm.801 2.003l.2 1.002-.8.2-.801.2-.801.2-.801.2-.8.2-.201-1 .8-.2.802-.201.8-.2.801-.2.801-.2zm-5.406-1.202l.801-.2.801-.2.8-.2.802-.2.8-.2.2 1-.8.2-.8.201-.802.2-.8.2-.801.2-.2-1zm.801 2.003l.2 1.002-.8.2-.801.2-.801.2-.2-1 .8-.201.801-.2.801-.2zm-3.604-1.402l.801-.2.801-.2.8-.2.201 1-.8.201-.802.2-.8.2-.2-1zm-3.003.601l.801-.2.8-.2.802-.2.2 1-.8.201-.802.2-.8.2-.2-1zm.4 2.003l.801-.2.801-.2.801-.2.801-.201.2 1.001-.8.2-.801.2-.801.201-.801.2-.2-1.001zm3.404 4.606l-.8.2-.801.2-.801.201-.2-1.001.8-.2.801-.2.801-.201.2 1.001zm-1.201-1.802l-.8.2-.802.2-.2-1.001.8-.2.802-.2.8-.2.801-.201.801-.2.2 1.001-.8.2-.801.2-.801.2zm5.806 1.001l-.8.2-.802.2-.8.201-.801.2-.801.2-.2-1 .8-.201.801-.2.801-.2.801-.2.8-.201.201 1.001zm-1.201-2.003l-.801.2-.8.201-.201-1.001.8-.2.802-.2.8-.201.801-.2.2 1-.8.201-.801.2zm6.807 1.002l-.8.2-.802.2-.8.2-.801.2-.801.201-.801.2-.2-1 .8-.201.802-.2.8-.2.801-.201.801-.2.8-.2.201 1zm-1.401-2.003l-.801.2-.801.2-.8.2-.802.201-.2-1.001.8-.2.802-.2.8-.201.801-.2.801-.2.801-.2.801-.201.8-.2.201 1-.8.201-.802.2-.8.2-.801.201zm5.005 1.202l-.8.2-.802.2-.8.2-.801.2-.2-1 .8-.2.801-.201.8-.2.802-.2.2 1zM803.662 151.41l-2.603.4-.6-2.803-19.221 3.605 2.002 10.214 19.22-3.605-1-5.207 2.202-2.604zm-14.215 1.001l.8-.2.801-.2.801-.2.801-.2.2 1-.8.2-.801.201-.801.2-.801.2-.2-1zm1.2 1.803l.802-.2.8-.2.802-.2.8-.201.2 1.001-.8.2-.801.2-.801.201-.8.2-.802.2-.8.2-.2-1 .8-.2.8-.201zm-4.204-1.202l.801-.2.801-.2.801-.2.2 1-.8.201-.801.2-.801.2-.2-1zm1.202 1.803l.8-.2.2 1-.8.201-.8.2-.802.2-.2-1 .8-.201.802-.2zm-5.006-1.202l.801-.2.801-.2.8-.2.802-.201.2 1.001-.8.2-.802.2-.8.201-.801.2-.2-1zm.4 2.003l.802-.2.8-.2.801-.201.4 1.202-.8.2-.8.2-.802.2-.4-1.201zm4.406 4.606l-.801.2-.801.2-.801.201-.8.2-.201-1.001.8-.2.802-.2.8-.2.801-.201.2 1.001zm8.008-1.602l-.8.2-.802.2-.8.2-.801.201-.801.2-.801.2-.8.2-.802.201-.8.2-.2-1 .8-.201.8-.2.802-.2.8-.201.601-.4.801-.2.8-.201.802-.2.8-.2.401 1.201zm1.602-4.406l-.801.2-.8.2-.802.2-.2-1 .8-.2.802-.201.8-.2.2 1zm-.2-2.003h-1.001l-.801.2-.801.2-.801.2-.2-1 .8-.2.801-.201.801-.2.801-.2.4 1.201zm2.002-.4l-.801.2-.801.2-.2-1.001.8-.2.802-.2.2 1zM794.452 166.43l.6 2.805-2.602.4 3.003 1.803 1.001 5.207 19.22-3.605-2.001-10.214-19.221 3.605zm9.81-.6l.801-.2.801-.2.801-.2.8-.201.802-.2.2 1.001-.6.4-.801.2-.801.201-.801.2-.801.2-.4-1.201zm.4 2.003l.802-.2.8-.2.2 1-.8.2-.8.201-.201-1.001zm-5.805-1.002l.8-.2.801-.2.801-.2.801-.2.801-.201.8-.2.201 1.001-.8.2-.802.2-.8.2-.801.201-.801.2-.801.2-.2-1zm5.406 1.202l.2 1.001-.801.2-.801.201-.8.2-.802.2-.2-1 .8-.201.802-.2.8-.2.802-.2zm-8.21-.6l.802-.201.8-.2.801-.2.2 1-.8.401-.801.2-.801.2-.2-1.2zm.2 2.002l.802-.2.8-.2.802-.2.8-.201.801-.2.2 1.001-.8.2-.801.2-.801.2-.801.201-.8.2-.201-1.001zm3.605 4.606l-.801.2-.8.2-.802.201-.2-1.001.8-.2.802-.2.8-.201.2 1.001zm-1.201-1.802l-.801.2-.801.2-.2-1 .8-.201.801-.2.801-.2.801-.201.8-.2.201 1.001-.8.2-.802.2-.8.2zm6.607.801l-.801.2-.801.2-.801.2-.8.201-.802.2-.8.2-.2-1 .8-.201.8-.2.802-.2.8-.2.802-.201.8-.2.2 1.001zm3.804-.6l-.801.2-.801.2-.8.2-.802.2-.2-1.001.8-.2.802-.2.8-.2.801-.201.2 1.001zm1.601-2.404l-.8.2-.801.2-.801.2-.801.2-.8.201-.802.2-.8.2-.801.201-.801.2-.801.2-.801.2-.2-1 .8-.2.801-.201.601-.6.8-.201.802-.2.8-.2.802-.201.8-.2.801-.2.801-.2.801-.201.4 1.402zm1.402-2.404l-.801.2-.8.201-.802.2-.8.2-.801.2-.801.201-.2-1.001.8-.2.801-.2.801-.201.801-.2.8-.2.802-.2.2 1zM808.867 178.848l-2.602.4-.601-2.803-19.22 3.605 2.002 10.214 19.22-3.605-1-5.207 2.201-2.604zm-8.809 0l.8-.2.802-.2.8-.2.2 1-.8.2-.8.201-.802.2-.2-1zm-9.21 1.803l.801-.2.8-.201.802-.2.8-.2.2 1-.8.201-.8.2-.802.2-.8.2-.2-1zm-3.003.6l.8-.2.802-.2.8-.2.2 1-.8.201-.801.2-.8.2-.201-1zm2.603 4.607l-.801.2-.801.2-.2-1.001.8-.2.802-.2.2 1zm-1.202-1.803l-.8.2-.2-1 .8-.201.801-.2.8-.2.802-.2.8-.201.802-.2.2 1-.801.201-.801.2-.8.2-.802.201-.8.2zm5.807 1.002l-.801.2-.801.2-.8.2-.802.2-.8.201-.2-1.001.8-.2.8-.2.802-.201.8-.2.801-.2.2 1zm2.202-2.404l-.8.2-.802.2-.8.201-.801.2-.2-1 .8-.201.801-.2.8-.2.802-.201.2 1.001zm2.002-.4l-.8.2-.802.2-.2-1.001.801-.2.8-.2.201 1zm-1.201-2.003l-.801.2-.8.2-.802.2-.8.201-.2-1.001.8-.2.8-.2.802-.201.8-.2.802-.2.8-.2.2 1-.8.2-.801.201zm5.806 1.001l-.8.2-.802.2-.8.201-.801.2-.801.2-.2-1 .8-.2.801-.201.801-.2.801-.2.8-.201.201 1.001z"/></g><path d="M786.043 209.29c-2.803 0-5.606-.8-8.009-2.403l-7.808-5.207a13.955 13.955 0 0 1-6.207-8.813c-.8-3.605 0-7.41 2.203-10.815 2.803-4.005 7.007-6.408 11.612-6.408 2.803 0 5.606.8 8.009 2.403l7.808 5.207c6.607 4.406 8.41 12.818 4.004 19.627-2.803 4.206-7.007 6.41-11.612 6.41z" fill="#00A6FB"/><path d="M778.034 176.645c2.603 0 5.206.801 7.609 2.403 0 0 4.605 3.004 7.808 5.208 6.006 4.005 8.009 11.816 3.804 18.425-2.603 4.006-6.607 6.008-10.812 6.008-2.602 0-5.205-.8-7.608-2.403 0 0-4.605-3.004-7.808-5.207-6.007-4.006-8.009-11.817-3.804-18.426 2.603-4.005 6.607-6.008 10.811-6.008zm0-1.803c-5.005 0-9.41 2.404-12.213 6.81-2.202 3.405-3.203 7.41-2.402 11.215.8 3.806 3.203 7.21 6.607 9.614l7.808 5.207c2.603 1.803 5.606 2.604 8.41 2.604 5.005 0 9.41-2.404 12.212-6.81 4.805-7.21 3.004-16.022-4.204-20.829l-7.809-5.207c-2.602-1.602-5.606-2.604-8.409-2.604z" fill="#008CDB"/><g><path d="M891.956 420.383c-12.413 0-21.623-9.613-21.623-22.23v-96.735h-6.407v96.734c0 12.618-9.21 22.231-21.623 22.231s-21.623-9.613-21.623-22.23V187.46c0-12.017 9.81-21.83 21.823-21.83h49.053c12.013 0 21.823 9.813 21.823 21.83v210.492c.2 12.818-9.21 22.431-21.423 22.431z" fill="#00A6FB"/><path d="M891.556 166.43c11.612 0 21.023 9.414 21.023 21.03v210.492c0 11.816-8.41 21.43-20.823 21.43s-20.822-9.814-20.822-21.43v-97.535h-8.009v97.535c0 11.816-8.409 21.43-20.822 21.43-12.413 0-20.822-9.814-20.822-21.43V187.26c0-11.616 9.41-21.03 21.022-21.03l49.253.2zm0-1.802h-49.053c-12.613 0-22.824 10.215-22.824 22.832v210.492c0 13.218 9.61 23.232 22.424 23.232s22.424-10.014 22.424-23.232v-95.933h4.605v95.933c0 13.218 9.61 23.232 22.424 23.232s22.424-10.014 22.424-23.232V187.46c.4-12.617-9.81-22.832-22.424-22.832z" fill="#008CDB"/></g><path d="M827.087 110.954c0 22.03 17.82 40.055 40.043 40.055 22.023 0 40.043-17.824 40.043-40.055a39.91 39.91 0 0 0-40.043-40.056c-22.224 0-40.043 18.025-40.043 40.056z" stroke="#008CDB" stroke-width=".877" fill="#00A6FB"/></g><g transform="translate(1264.355 255.353)"><path d="M1.602 315.239v-1.002c.4-4.005 3.203-39.455 6.607-77.507v-1.002h108.916v1.002c3.404 38.052 6.207 73.702 6.608 77.507v1.002H1.602z" fill="#2AB6F4"/><path d="M116.325 236.53c3.203 36.05 6.006 69.696 6.607 77.507H2.803c.6-8.011 3.404-41.458 6.607-77.508h106.915zm1.802-2.003H7.408l-.2 1.802C4.004 271.78 1.402 304.624.6 313.837l-.2 2.203h124.533l-.2-2.203c-.601-6.61-3.404-40.857-6.607-77.508v-1.802z" fill="#008CDB"/><path d="M8.409 234.527v-1.002c5.005-57.68 8.409-90.525 10.21-97.735 1.402-6.41 4.406-12.217 8.81-17.224h-.4l1.602-1.602c6.407-6.41 14.816-10.215 23.825-11.016h20.221c9.01.801 17.42 4.607 23.826 11.016l1.602 1.602h-.4c4.404 4.806 7.408 10.815 8.81 17.224 1.6 7.21 5.004 40.055 10.21 97.735v1.002H8.409z" fill="#2AB6F4"/><path d="M69.875 106.75h3.003c9.01.8 17.219 4.606 23.225 10.614h-.2a37.08 37.08 0 0 1 10.01 18.225c2.003 8.612 6.207 54.476 10.011 97.736H9.41c3.804-43.26 8.209-88.923 10.01-97.736a37.08 37.08 0 0 1 10.012-18.225h-.2c6.006-6.008 14.215-10.014 23.224-10.615H69.874zm0-2.003H52.656c-9.21.8-18.019 4.806-24.426 11.215l-3.203 3.205h.6c-3.804 4.606-6.406 10.214-7.808 16.022-1.602 7.21-5.005 40.256-10.21 97.936l-.201 2.203h110.919l-.2-2.203c-5.006-57.68-8.41-90.726-10.211-97.936-1.402-5.808-4.005-11.416-7.809-16.022h.6l-3.203-3.205c-6.607-6.409-15.216-10.414-24.426-11.215H71.277c-.601.2-1.002 0-1.402 0z" fill="#008CDB"/><path d="M89.296 402.16c-12.814 0-22.024-10.816-22.024-25.837V316.24h44.247v60.083c0 13.219-7.207 23.433-18.22 25.436-.2 0-.4 0-.6.2h-.4c-.2 0-.6 0-.801.2h-2.202z" fill="#2AB6F4"/><path d="M110.318 317.241v59.082c0 12.818-7.007 22.632-17.218 24.434-.2 0-.4 0-.801.2-.4 0-.6.2-1.001.2-.6 0-1.402.201-2.002.201-12.213 0-21.023-10.414-21.023-24.834v-59.082h42.045v-.2zm2.002-2.002H66.071v61.084c0 15.622 9.81 26.838 23.024 26.838.601 0 1.402 0 2.203-.2.4 0 .6 0 1-.201h.401c.2 0 .4 0 .6-.2 11.413-2.203 19.021-12.818 19.021-26.437V315.24z" fill="#008CDB"/><path d="M36.239 402.16c-.801 0-1.402 0-2.002-.201-.4 0-.601 0-.801-.2 0 0-.801-.2-1.001-.2-10.812-2.003-18.22-12.218-18.22-25.436V316.04h44.248v60.083c0 15.221-9.41 26.036-22.224 26.036z" fill="#2AB6F4"/><path d="M57.462 317.241v59.082c0 14.42-8.81 24.835-21.023 24.835-.6 0-1.401 0-2.002-.2-.4 0-.801 0-1.001-.2-.2 0-.4 0-.801-.201-10.211-2.003-17.218-11.616-17.218-24.434v-59.082h42.045v.2zm2.002-2.002H13.214v61.084c0 13.62 7.608 24.434 19.02 26.437.2 0 .401 0 .601.2h.4c.401 0 .601 0 1.002.2.8 0 1.401.2 2.202.2 13.414 0 23.025-11.215 23.025-26.836V315.239z" fill="#008CDB"/><ellipse stroke="#008CDB" fill="#2AB6F4" cx="61.666" cy="61.487" rx="34.837" ry="34.848"/><g><path d="M39.843 101.943c-.601-.2-15.617-3.605-21.623-13.018-4.405-6.81-2.603-20.83-1.202-32.245.6-4.606 1.001-8.412 1.001-11.216 0-9.212 4.005-22.43 12.814-31.243C39.042 5.81 50.253 1.403 62.066 1.403c23.826 0 44.048 20.228 44.048 44.262 0 8.812.8 15.421 1.601 20.628 1.202 8.412 2.003 14.62-1.601 22.431-5.406 11.617-20.022 12.217-23.025 12.217h-2.403l1.001-1.402c4.405-7.01 8.41-23.833 8.41-32.445 0-18.425-18.62-32.244-23.426-35.449-1.2 3.806-6.206 14.82-21.623 20.83-7.808 3.003-14.816 7.21-14.816 17.223 0 8.612 6.407 24.033 10.812 30.843l1.401 2.003-2.602-.601z" fill="#2AB6F4"/><path d="M62.066 2.204c23.626 0 43.047 20.63 43.047 43.26 0 22.632 5.606 30.242 0 42.66-5.006 11.015-18.82 11.616-22.024 11.616h-.6c4.404-7.01 8.609-24.034 8.609-32.846 0-22.03-25.027-37.051-25.027-37.051s-3.003 14.42-21.423 21.63c-8.209 3.204-15.417 7.61-15.417 18.225 0 8.812 6.607 24.434 11.012 31.444 0 0-15.216-3.405-21.022-12.618-5.807-9.213-.2-33.046-.2-42.86 0-9.813 4.404-22.43 12.613-30.442 8.008-8.611 18.82-13.018 30.432-13.018zm0-2.002c-12.012 0-23.425 4.606-31.834 13.218-9.01 9.013-13.014 22.631-13.214 31.844 0 2.804-.4 6.61-1 11.015-1.402 11.416-3.004 25.636 1.4 32.846 6.207 9.814 21.624 13.419 22.224 13.619l4.806 1.202-2.603-4.206c-4.205-6.61-10.812-22.03-10.812-30.442 0-8.813 5.606-13.019 14.215-16.223 14.416-5.608 19.822-15.421 21.624-20.228 5.806 4.206 22.023 17.024 22.023 34.047 0 8.212-4.004 25.235-8.209 31.844l-1.802 3.005 3.404.2h.801c17.218 0 22.824-10.615 23.826-12.818 3.804-8.211 2.803-14.42 1.801-23.032-.6-5.207-1.601-11.816-1.601-20.428 0-11.416-4.805-22.832-13.214-31.444C85.09 5.008 73.879.201 62.066.201z" fill="#008CDB"/></g><g><path d="M43.647 205.086c-1.802 0-3.204-1.602-3.204-3.405l2.002-59.282c0-1.803 1.402-3.205 3.204-3.205l34.437 1.202c1.802 0 3.203 1.602 3.203 3.405l-2.002 59.282c0 1.803-1.401 3.205-3.203 3.205l-34.437-1.202z" fill="#82D8F9"/><path d="M45.85 140.196l34.436 1.202c1.201 0 2.202 1 2.202 2.403l-2.002 59.282a2.222 2.222 0 0 1-2.202 2.203l-34.437-1.202c-1.201 0-2.202-1-2.202-2.403l2.002-59.282a2.222 2.222 0 0 1 2.202-2.203zm0-2.003c-2.403 0-4.205 1.803-4.205 4.206l-2.003 59.282c0 2.403 1.802 4.406 4.205 4.406l34.237 1.202h.2c2.402 0 4.204-1.803 4.204-4.206l2.002-59.282c0-1.202-.4-2.203-1.2-3.004-.802-.801-1.803-1.402-3.004-1.402l-34.437-1.202z" fill="#008CDB"/></g><ellipse fill="#2486C8" cx="72.077" cy="70.699" rx="3.804" ry="3.805"/><ellipse fill="#2486C8" cx="49.853" cy="70.699" rx="3.804" ry="3.805"/><path d="M50.254 83.918c.4-.4 1.201-.4 1.602 0 2.002 2.203 5.806 3.404 9.81 3.404 4.004 0 7.808-1.401 9.81-3.404.401-.4 1.202-.4 1.602 0 .4.4.4 1.201 0 1.602-2.402 2.604-6.807 4.206-11.412 4.206-4.805 0-9.01-1.602-11.412-4.206-.6-.4-.4-1.202 0-1.602z" fill="#2486C8"/><g><path d="M48.452 216.101c-2.603 0-5.406-.801-7.808-2.003l-8.81-5.007c-7.608-4.406-10.21-13.418-5.806-21.029 2.803-5.007 7.808-8.01 13.214-8.01 2.603 0 5.406.8 7.808 2.002l8.81 5.007c3.604 2.003 6.206 5.207 7.408 9.012 1.201 4.006.6 8.212-1.602 12.017-2.803 5.007-7.808 8.011-13.214 8.011z" fill="#2AB6F4"/><path d="M39.042 181.053c2.402 0 5.005.6 7.408 2.002a784.345 784.345 0 0 1 8.81 5.007c7.007 4.006 9.81 12.217 5.605 19.627-2.803 5.007-7.608 7.41-12.413 7.41-2.403 0-5.005-.6-7.408-2.002-3.604-2.003-8.81-5.007-8.81-5.007-7.007-4.006-9.81-12.217-5.605-19.627 2.803-5.007 7.608-7.41 12.413-7.41zm0-2.003c-5.806 0-11.212 3.204-14.215 8.411-2.203 4.006-2.803 8.612-1.602 12.818 1.201 4.006 4.004 7.41 7.808 9.614l8.81 5.006c2.602 1.402 5.405 2.204 8.208 2.204 5.807 0 11.212-3.205 14.216-8.412 2.202-4.006 2.803-8.612 1.601-12.818-1.2-4.005-4.004-7.41-7.808-9.613l-8.81-5.007a16.227 16.227 0 0 0-8.208-2.203z" fill="#008CDB"/></g><g><path d="M75.28 222.31c-.8 0-1.801 0-2.602-.2-8.81-1.403-14.215-9.013-13.014-17.625l1.602-10.014c1.2-7.81 7.408-13.218 15.016-13.218.8 0 1.802 0 2.602.2 4.205.6 7.809 2.804 10.211 6.008 2.403 3.205 3.404 7.41 2.803 11.616l-1.601 10.014c-1.202 7.811-7.408 13.219-15.016 13.219z" fill="#2AB6F4"/><path d="M76.282 182.254c.8 0 1.601 0 2.602.2 8.61 1.402 13.215 8.813 12.013 16.623a789.217 789.217 0 0 1-1.601 10.014c-1.202 7.01-6.607 12.217-14.015 12.217-.801 0-1.602 0-2.603-.2-8.61-1.402-13.214-8.812-12.013-16.623.6-4.006 1.602-10.014 1.602-10.014 1-7.21 6.607-12.217 14.015-12.217zm0-2.003c-8.21 0-14.816 5.808-16.017 14.02l-1.602 10.014c-1.402 9.212 4.405 17.424 13.815 18.826 1 .2 1.802.2 2.803.2 8.208 0 14.816-5.808 16.017-14.02l1.602-10.013c.6-4.406-.4-8.812-2.803-12.417-2.603-3.405-6.407-5.809-10.812-6.41-1.201-.2-2.202-.2-3.003-.2z" fill="#008CDB"/></g></g><g><path d="M456.89 455.832c-2.602 0-5.205-.6-7.608-2.003l-8.609-4.806c-3.604-2.003-6.207-5.207-7.208-8.812-1.2-3.806-.6-8.012 1.402-11.617 2.803-4.806 7.608-7.81 12.814-7.81 2.602 0 5.205.6 7.608 2.002l8.609 4.807c3.604 2.003 6.207 5.207 7.208 8.812 1.201 3.806.6 8.011-1.402 11.616-2.803 5.007-7.608 7.811-12.814 7.811z" fill="#2AB6F4"/><path d="M447.68 421.785c2.403 0 4.806.6 7.008 1.802 3.404 2.003 8.61 4.807 8.61 4.807 6.807 3.805 9.41 11.817 5.405 19.027-2.803 4.806-7.208 7.21-12.013 7.21-2.402 0-4.805-.601-7.007-1.803-3.404-2.003-8.61-4.807-8.61-4.807-6.807-3.805-9.41-11.816-5.405-19.026 2.803-4.807 7.408-7.21 12.013-7.21zm0-2.003c-5.605 0-10.811 3.004-13.814 8.212-2.203 4.005-2.803 8.411-1.602 12.417 1.201 4.005 3.804 7.21 7.608 9.413l8.61 4.807c2.402 1.401 5.205 2.203 8.008 2.203 5.606 0 10.812-3.005 13.815-8.212 2.202-4.005 2.803-8.411 1.602-12.417-1.202-4.006-3.805-7.21-7.609-9.413l-8.609-4.807c-2.402-1.402-5.205-2.203-8.008-2.203z" fill="#008CDB"/><g fill="#008CDB"><path d="M488.725 310.831h-20.022v-42.259c0-23.632 19.22-42.859 42.646-42.859 11.412 0 22.224 4.406 30.232 12.417 8.009 8.011 12.413 18.826 12.413 30.242l-.2 42.46h-20.622c-6.407 5.407-14.215 8.21-22.224 8.21-8.008 0-15.817-2.803-22.223-8.21z"/><path d="M511.349 226.714c11.212 0 21.623 4.407 29.431 12.217 7.809 7.811 12.213 18.426 12.213 29.641l-.2 41.458h-20.021c-6.007 5.007-13.615 8.011-21.824 8.011-8.208 0-15.817-3.004-21.823-8.211h-19.42v-41.258c0-23.031 18.62-41.858 41.644-41.858zm0-2.002c-24.026 0-43.647 19.627-43.647 43.86V311.832h20.822c6.607 5.408 14.416 8.212 22.625 8.212 8.208 0 16.017-2.804 22.624-8.011h21.223v-2.003l.2-41.458c0-11.816-4.605-22.63-12.814-31.043-8.409-8.21-19.42-12.817-31.033-12.817z"/></g><path d="M552.993 268.372c0-11.215-4.404-21.63-12.213-29.64-7.808-7.812-18.22-12.218-29.431-12.218-23.025 0-41.645 18.826-41.645 41.858v41.257h15.817c-4.405-6.809-6.807-15.02-6.807-23.432 0-21.23 14.615-38.654 32.435-38.654h1.401l-.2 1.402c-1.602 15.422 7.007 18.426 16.217 21.63 7.408 2.604 15.217 5.408 15.217 15.422 0 8.612-2.403 16.823-6.808 23.632h15.817l.2-41.257z" fill="#2AB6F4"/><path d="M527.766 273.179c-9.01-3.205-19.02-6.61-17.819-22.832-16.017.801-28.63 16.623-28.63 36.05 0 8.212 2.202 16.022 6.406 22.431 6.207 5.808 14.416 9.213 23.225 9.213 9.61 0 18.22-4.005 24.627-10.615 3.604-6.008 5.606-13.418 5.606-21.029.2-8.411-6.207-10.615-13.415-13.218zM495.932 289.4a5.811 5.811 0 0 1-5.806-5.808 5.811 5.811 0 0 1 5.806-5.808 5.811 5.811 0 0 1 5.806 5.808 5.811 5.811 0 0 1-5.806 5.808zm15.016 21.03c6.007 0 11.012-3.005 11.012-6.81h-21.823c0 3.605 4.805 6.81 10.811 6.81zm13.615-21.03a5.811 5.811 0 0 1-5.806-5.808 5.811 5.811 0 0 1 5.806-5.808 5.811 5.811 0 0 1 5.806 5.808 5.811 5.811 0 0 1-5.806 5.808z" fill="#2AB6F4"/><g fill="#82D8F9"><path d="M481.917 349.084l24.827 33.447c.6-1.603 1.201-3.205 2.202-4.607l-25.827-35.048c-1.002-1.202-2.403-2.003-3.805-2.003-1 0-2.002.2-2.803 1.001l-52.656 38.854c-2.002 1.602-2.603 4.606-1.001 6.61l23.625 31.843h1.402c1.602 0 3.203.2 4.605.601l-23.425-31.844 52.856-38.854zM447.48 367.91l10.612-7.81c.2-.2.4-.2.6-.2.2 0 .601.2.601.4.2.4.2 1.001-.2 1.201l-10.612 7.811c-.2.2-.4.2-.6.2-.2 0-.6-.2-.6-.4-.401-.4-.201-.801.2-1.202zM504.742 394.747l.4-2.603-43.847 32.245 3.404 1.802c2.402 1.402 4.405 3.205 5.806 5.408l35.838-26.437c-1.601-3.004-2.202-6.61-1.601-10.415zm-15.016 20.229c-1.602 1.201-3.604.8-4.806-.802-1.2-1.602-.8-3.605.801-4.806 1.602-1.202 3.604-.801 4.805.8 1.002 1.603.801 3.606-.8 4.808z"/></g><path d="M521.36 412.172c-.801 0-1.802 0-2.603-.2-8.41-1.403-13.815-8.613-12.614-17.224l1.602-9.814c1.201-7.41 7.208-12.818 14.616-12.818.8 0 1.802 0 2.602.2 4.005.601 7.609 2.804 9.81 5.808 2.403 3.205 3.204 7.21 2.604 11.216l-1.602 9.814c-1.001 7.81-7.008 13.018-14.416 13.018z" fill="#2AB6F4"/><path d="M522.16 373.318c.801 0 1.602 0 2.403.2 8.209 1.202 12.814 8.412 11.612 16.022-.6 4.006-1.601 9.814-1.601 9.814-1.001 6.81-6.407 11.816-13.615 11.816-.8 0-1.602 0-2.403-.2-8.208-1.202-12.813-8.412-11.612-16.022.6-4.006 1.602-9.814 1.602-9.814 1.201-6.81 6.607-11.816 13.614-11.816zm0-2.003c-8.008 0-14.215 5.608-15.616 13.619l-1.602 9.814c-1.402 9.012 4.405 16.823 13.414 18.225 1.001.2 1.802.2 2.803.2 8.009 0 14.416-5.608 15.617-13.619l1.602-9.813c.6-4.407-.4-8.612-2.803-12.017-2.403-3.405-6.207-5.608-10.612-6.209-1 0-1.802-.2-2.803-.2z" fill="#008CDB"/><path d="M537.577 614.052c-12.413 0-21.423-10.615-21.423-25.035v-57.48h-8.41v57.48c0 14.22-9.209 25.035-21.422 25.035-12.413 0-21.423-10.615-21.423-25.035v-57.48h-12.413l7.207-75.504.601-.2c4.004-1.002 7.608-3.606 9.61-7.611 2.203-3.806 2.603-8.011 1.602-12.017-.2-.6-.4-1.402-.8-2.003l-.401-.8 37.44-27.64.6.802c2.403 3.004 6.007 5.207 10.011 5.808.801.2 1.802.2 2.603.2 7.608 0 13.815-5.407 15.016-13.218l1.602-9.814c.6-4.206-.4-8.411-2.803-11.616-2.403-3.204-6.007-5.407-10.211-6.008-.8-.2-1.802-.2-2.603-.2-4.204 0-8.209 1.602-11.012 4.606l-.8.801-26.229-35.45c-1-1.401-2.803-2.402-4.605-2.402l-2.202-.2 1.602-1.603c7.007-7.01 16.217-10.815 26.228-10.815h13.414c17.419 0 32.235 11.816 36.24 28.84 3.403 15.221 3.403 26.036 3.403 52.273V596.226c-2.603 11.016-10.612 17.826-20.422 17.826z" fill="#2AB6F4"/><path d="M518.556 328.055c17.019 0 31.434 11.616 35.238 28.24 3.804 16.622 3.404 28.038 3.404 59.882v180.05c-2.403 10.014-10.01 16.823-19.621 16.823-11.813 0-20.422-10.214-20.422-24.033v-58.481h-10.411v58.48c0 13.82-8.81 24.034-20.422 24.034-11.813 0-20.422-10.214-20.422-24.033v-58.481h-12.213l7.008-73.702c4.204-1.002 8.008-3.806 10.41-8.012 2.203-4.005 2.804-8.611 1.602-12.817-.2-.801-.4-1.402-.8-2.203l36.038-26.637c2.403 3.204 6.207 5.407 10.611 6.208 1.002.2 1.802.2 2.803.2 8.21 0 14.816-5.807 16.018-14.019l1.601-9.813c.601-4.407-.4-8.813-3.003-12.418-2.603-3.404-6.407-5.808-10.811-6.409-1.001-.2-1.802-.2-2.803-.2-4.605 0-8.81 1.803-11.613 5.007l-25.427-34.448c-1.201-1.802-3.204-2.804-5.406-2.804 6.607-6.609 15.617-10.414 25.427-10.414h13.214zm0-2.003h-13.414c-10.21 0-19.821 4.006-26.829 11.016l-3.203 3.204 4.405.2c1.601 0 3.003.801 3.804 2.003l25.427 34.448 1.401 2.003 1.602-1.803c2.603-2.804 6.207-4.406 10.211-4.406.801 0 1.602 0 2.403.2 4.004.601 7.408 2.604 9.61 5.608 2.202 3.004 3.203 7.01 2.603 10.815l-1.602 9.814c-1.201 7.21-6.807 12.217-14.015 12.217-.8 0-1.602 0-2.403-.2-3.804-.602-7.207-2.604-9.41-5.408l-1.2-1.602-1.603 1.201L470.305 432l-1.402 1.002.601 1.401c.2.601.6 1.202.8 1.803 1.002 3.605.601 7.61-1.4 11.216-2.003 3.605-5.206 6.208-9.01 7.01l-1.402.4-.2 1.402-7.008 73.702-.2 2.203h12.413v56.478c0 15.222 9.41 26.037 22.425 26.037 12.813 0 22.424-11.216 22.424-26.037v-56.478h6.406v56.478c0 15.222 9.41 26.037 22.424 26.037 10.211 0 18.62-7.21 21.423-18.226v-188.26c0-26.237 0-37.052-3.403-52.474-3.404-17.424-18.62-29.64-36.64-29.64z" fill="#008CDB"/><g fill="#82D8F9"><path d="M466.701 378.325l1.401-1.002-1-1.402-1.402 1.002-1.602 1.001-1.401 1.202 1 1.402 1.402-1.202zM471.706 374.52l1.402-1.002 1.602-1.001 1.401-1.202 1.402-1.001 1.401-1.002-1.001-1.402-1.402 1.002-1.401 1.001-1.602 1.202-1.401 1.001-1.402 1.002-1.401 1.201-1.402 1.002 1.001 1.402 1.402-1.002zM482.518 366.508l1.602-1.001 1.401-1.001 1.402-1.202-1.001-1.402-1.402 1.202-1.401 1.001-1.602 1.001-1.402 1.202-1.401 1.001 1 1.402 1.402-1.001zM468.303 380.528l1.401-1.002 1.402-1.201 1.601-1.002 1.402-1.001-1.001-1.402-1.602 1.001-1.401 1.002-1.402 1.201-1.401 1.002-1.602 1.001-1.402 1.202 1.001 1.402 1.602-1.202zM477.713 373.518l1.401-1.001-1-1.402-1.402 1.001-1.402 1.202-1.602 1.001 1.002 1.402 1.601-1.001zM479.915 371.916l1.402-1.002 1.401-1 1.402-1.203 1.601-1.001-1-1.402-1.602 1.001-1.402 1.202-1.401 1.002-1.402 1zM469.904 382.73l1.402-1 1.401-1.202 1.602-1.002-1.001-1.402-1.602 1.002-1.401 1.202-1.402 1-1.401 1.002-1.602 1.202 1.001 1.402 1.602-1.202zM473.909 377.524l1 1.402 1.402-1.002 1.602-1.001-1.001-1.402-1.602 1.001zM488.725 368.912l-1.002-1.402-1.401 1.001-1.402 1.002-1.601 1.201-1.402 1.002-1.401 1-1.402 1.203-1.601 1.001 1 1.402 1.602-1.001 1.402-1.202 1.401-1.001 1.402-1.002 1.602-1.202 1.401-1zM473.508 387.738l1.402-1.202 1.601-1.001 1.402-1.002-1.001-1.402-1.402 1.002-1.601 1.201-1.402 1.002-1.401 1.001-1.402 1.202 1.001 1.202 1.402-1.002zM478.714 383.933l1.401-1.002 1.402-1.202 1.401-1 1.602-1.002 1.402-1.202-1.002-1.202-1.601 1.002-1.402 1.001-1.401 1.202-1.402 1.001-1.601 1.002zM487.123 375.721l-1.602 1.002 1.001 1.401 1.602-1.201 1.401-1.002 1.402-1.001-1.001-1.402-1.402 1.001zM492.128 371.916l-1.401 1.001 1 1.402 1.402-1.001 1.402-1.202-1.001-1.202zM478.113 387.738l1.402-1.002 1.401-1.201-1-1.202-1.402 1.001-1.402 1.002-1.602 1.202-1.401 1-1.402 1.002-1.401 1.202 1.001 1.202 1.401-1.002 1.402-1.001 1.401-1.202zM484.52 382.931l1.602-1.001 1.401-1.202-1-1.202-1.402 1.002-1.602 1.001-1.402 1.202-1.401 1.001 1.001 1.402 1.402-1.201zM492.529 377.123l1.401-1.202-1.001-1.201-1.401 1.001-1.402 1.002-1.401 1.201-1.602 1.002 1 1.402 1.603-1.202 1.401-1.002zM472.908 392.945l1 1.202 1.402-1.002 1.402-1.001-1.001-1.402-1.402 1.001zM479.314 388.138l-1.401 1.002-1.402 1.001 1.002 1.402 1.401-1.001 1.402-1.202 1.601-1.001 1.402-1.002-1.001-1.402-1.402 1.002zM487.323 382.13l-1.401 1.202-1.402 1.001-1.401 1.001 1 1.402 1.402-1.001 1.402-1.202 1.401-1.001 1.602-1.001 1.401-1.202-1-1.202-1.602 1.002zM492.529 378.525l-1.602 1.001 1.001 1.402 1.602-1.201 1.401-1.002 1.402-1.001-1.001-1.402-1.402 1.001z"/></g><path d="M468.102 408.154l-11.212-15.221c-.4-.601-1.2-.601-1.601-.2l-12.614 9.212c-.6.4-.6 1.202-.2 1.602l11.212 15.221c.4.601 1.201.601 1.602.2l12.613-9.212c.6-.4.6-1.202.2-1.602z" fill="#82D8F9"/><g><path d="M476.712 406.764c-.4 0-.801-.2-.801-.6l-7.008-12.818-3.203 2.403c-.2.2-.4.2-.6.2h-.201c-.2 0-.6-.2-.6-.4l-10.212-18.827c-.2-.4-.2-1 .2-1.201l11.213-8.212c.2-.2.4-.2.6-.2h.4c.401.2.601.4.601.801l3.004 13.82 4.605-3.405c.2-.2.4-.2.6-.2h.4c.401.2.601.4.601.8l1.402 26.838c0 .4-.2.8-.801 1.001h-.2z" fill="#FFF"/><path d="M466.1 367.91l3.404 15.221 5.806-4.205 1.402 26.837-7.408-13.82-4.205 3.005-10.21-18.826 11.211-8.212zm0-2.003c-.4 0-.8.2-1.201.401l-11.212 8.211c-.8.601-1.001 1.603-.6 2.604l10.21 18.826c.2.601.801.801 1.402 1.002h.4c.4 0 .801-.2 1.202-.401l2.202-1.602 6.407 11.816c.4.601 1 1.002 1.802 1.002h.6c.801-.2 1.602-1.002 1.402-2.003l-1.402-26.837c0-.802-.4-1.402-1.201-1.803-.2-.2-.6-.2-.8-.2-.401 0-.802.2-1.202.4l-3.404 2.404-2.803-12.217c-.2-.601-.6-1.202-1.201-1.402 0 0-.2-.2-.6-.2z" fill="#008CDB"/></g></g><g><path d="M1024.498 338.47H598.842c-15.416 0-27.83 12.417-27.83 27.838v16.423c-24.225 14.42-40.443 40.856-40.443 71.098 0 30.242 16.218 56.68 40.444 71.1v194.268h474.508V359.298c-.2-11.416-9.61-20.829-21.023-20.829z" fill="#008CDB"/><g fill="#FFF"><path d="M583.226 544.155h17.619v-8.812a84.629 84.629 0 0 1-17.62-4.807v13.619zM1016.49 350.486H599.043c-8.81 0-16.017 7.21-16.017 16.022v10.415c9.41-3.605 19.42-5.608 29.832-5.608 15.216 0 29.431 4.206 41.844 11.416h359.786v217.301h-325.95v23.232l17.62-7.81c5.205-2.203 10.61-3.405 16.017-3.405 13.214 0 24.626 6.81 31.433 18.225h30.233c5.606-5.808 13.014-9.613 21.423-11.015l23.024-3.605c2.203-.4 4.405-.6 6.407-.6 8.81 0 17.419 3.003 23.826 8.41 2.402 2.003 4.404 4.207 6.206 6.61H1025.9c3.604 0 6.407-2.804 6.407-6.409V366.508c0-8.812-7.008-16.022-15.817-16.022zm-209.625 23.232c-3.604 0-6.607-3.004-6.607-6.609s3.003-6.609 6.607-6.609 6.607 3.004 6.607 6.61c.2 3.604-2.803 6.608-6.607 6.608zm174.587 242.937c0 1.402-1.201 2.604-2.602 2.604h-5.206c-1.402 0-2.603-1.202-2.603-2.604v-1.201c0-1.402 1.201-2.604 2.603-2.604h5.206c1.401 0 2.602 1.202 2.602 2.604v1.201zm33.236 0c0 1.402-1.201 2.604-2.603 2.604h-20.622c-1.401 0-2.603-1.202-2.603-2.604v-1.201c0-1.402 1.202-2.604 2.603-2.604h20.622c1.402 0 2.603 1.202 2.603 2.604v1.201zM780.037 634.68H755.81c2.002 4.406 3.003 8.813 3.403 13.219h15.217c1-4.607 2.803-9.213 5.606-13.219zM774.03 662.519c-.4-2.804-.6-5.408-.4-8.011h-14.416c-.4 3.004-1 6.208-2.202 9.012-.8 2.203-2.002 4.406-3.204 6.41h22.024c-.8-2.404-1.401-5.008-1.802-7.411zM966.636 654.307h-94.701c-.2 5.408-1.401 10.615-3.804 15.422h98.305a2.222 2.222 0 0 0 2.203-2.203V656.71c.2-1.402-.801-2.404-2.003-2.404z"/></g><g fill="#2AB6F4"><path d="M1073.951 678.541H862.124c-5.606 6.008-13.414 10.214-22.023 11.616l-15.617 2.404h249.267c1.802 0 3.404-1.603 3.404-3.405v-7.21c.2-2.003-1.402-3.405-3.204-3.405zM786.844 685.751c-2.603-2.203-4.805-4.606-6.607-7.21H746c-2.803 2.403-6.006 4.406-9.41 5.808l-18.42 8.212h80.887c-4.405-1.603-8.61-3.806-12.213-6.81z"/></g><path d="M866.93 647.498c-2.803-17.424-16.418-27.839-32.235-27.839-1.802 0-3.804.2-5.806.401 0 0-13.815 2.203-23.025 3.605-17.819 2.804-30.633 18.426-27.43 38.053 2.804 17.424 16.418 27.838 32.235 27.838 1.802 0 3.804-.2 5.807-.4 0 0 13.814-2.203 23.024-3.605 17.82-3.004 30.633-18.626 27.43-38.053zM751.606 636.483c-5.806-13.018-17.218-19.828-29.632-19.828-4.605 0-9.41 1.002-14.215 3.004 0 0-11.012 4.807-19.42 8.612v62.687c3.403 1.202 7.007 1.803 10.81 1.803 4.606 0 9.411-1.002 14.216-3.004 0 0 12.814-5.608 21.223-9.413 16.618-7.41 25.027-25.836 17.018-43.861z" fill="#FFF"/><path d="M687.537 571.793c-2.602-15.421-15.816-27.037-32.034-27.037H546.587c-17.62 0-31.835 13.819-32.435 31.443v56.679h82.688a10.768 10.768 0 0 1 10.812 10.815v75.304h80.286V576.2l-.4-4.406z" fill="#008CDB"/><path d="M611.656 643.893v75.104h72.278V576.2c-.4-15.22-13.014-27.438-28.43-27.438H546.586c-15.417 0-27.83 12.217-28.43 27.638v52.673h78.683c8.21 0 14.816 6.61 14.816 14.821zM690.941 453.63c0-43.06-34.837-77.909-77.883-77.909-43.046 0-77.884 35.049-77.884 77.908 0 43.06 34.838 77.908 77.884 77.908 15.817 0 30.432-4.806 42.846-12.818-10.211-3.004-18.42-15.621-18.42-23.232l37.84 5.007c9.81-13.018 15.617-29.24 15.617-46.865zm-29.231 13.017c-2.203-5.207.2-11.215 5.406-13.418 5.205-2.203 11.212.2 13.414 5.407s-.2 11.216-5.406 13.419c-5.205 2.203-11.212-.2-13.414-5.408z" fill="#FFF"/><path d="M506.944 718.997v-28.64c.8-8.812 6.807-14.22 16.017-14.22 8.61 0 14.416 4.807 15.817 12.618.2 1.202.2 2.203.2 3.605v26.637h68.674v-72.7c0-9.013-4.205-13.219-13.214-13.219H476.11c-8.81 0-13.214 4.206-13.214 13.218v72.701h44.047z" fill="#2AB6F4"/><path d="M535.174 718.997V692.16c0-6.61-5.405-12.017-12.013-12.017-6.607 0-12.012 5.408-12.012 12.017v26.837h24.025zM1038.914 696.365h14.015v22.631h-14.015z" fill="#2AB6F4"/></g><g transform="translate(721 406)"><circle fill="#FFF" cx="85" cy="85" r="85"/><path d="M137.997 98.055a29.809 29.809 0 0 0-5.593-17.874c-2.355-3.284-4.185-6.92-5.18-10.829a42.387 42.387 0 0 0-2.87-7.895c.79-4.822 1.593-14.114-2.06-21.459-4.513-9.067-13.65-15.008-17.914-15.008-.625 0-1.144.127-1.53.39-1.802 1.234-2.943 7.224-2.68 14.21a43.273 43.273 0 0 0-14.775-2.584c-4.283 0-8.418.62-12.322 1.775.605-6.957-.176-12.844-1.916-14.226-.468-.374-1.158-.553-2.01-.555-4.775 0-14.693 5.671-20.118 14.854-5.213 8.823-4.22 20.923-3.674 25.086a43.622 43.622 0 0 0-1.257 3.581c-1.259 4.133-3.33 8.036-6.109 11.352-4.419 5.273-7.055 12.046-6.988 19.46.15 16.397 13.695 29.875 30.189 29.875h.012c2.983 0 5.863-.554 8.584-1.355l1.694 6.86c.273 1.08 1.25 2.287 2.369 2.287h10.836v-12.468h1.567V136h7.327c1.12 0 2.097-1.119 2.37-2.199l1.89-7.668c3.113 1.082 6.458 1.584 9.943 1.584.161 0 .324-.036.487-.04 16.246-.246 29.49-13.47 29.728-29.622zM106.828 78.6c0 3.845-3.134 6.962-7.001 6.962-3.867 0-7.002-3.117-7.002-6.962 0-3.845 3.135-6.962 7.002-6.962s7.001 3.117 7.001 6.962zm-29.264 0c0 3.845-3.135 6.962-7.002 6.962s-7.002-3.117-7.002-6.962c0-3.845 3.135-6.962 7.002-6.962s7.002 3.117 7.002 6.962zm16.005 27.59c0 5.412-4.412 9.8-9.855 9.8-5.442 0-9.855-4.388-9.855-9.8 0-5.41 4.413-9.797 9.855-9.797 5.443 0 9.855 4.387 9.855 9.798z" fill="#008CDB"/></g></g></svg>