<svg xmlns="http://www.w3.org/2000/svg" width="512" height="512" viewBox="0 0 512 512"><path d="M202.38 236.221c0-4.392 3.593-7.989 7.982-7.989H458.01c4.396 0 7.989 3.597 7.989 7.989v39.558c0 4.393-3.592 7.989-7.989 7.989H210.363c-4.39 0-7.982-3.597-7.982-7.989v-39.558zm0-100.45c0-4.393 3.593-7.985 7.982-7.985H458.01c4.396 0 7.989 3.593 7.989 7.985v39.554c0 4.396-3.592 7.989-7.989 7.989H210.363c-4.39 0-7.982-3.593-7.982-7.989v-39.554zm0 200.904c0-4.396 3.593-7.989 7.982-7.989H458.01c4.396 0 7.989 3.593 7.989 7.989v39.55c0 4.396-3.592 7.988-7.989 7.988H210.363c-4.39 0-7.982-3.592-7.982-7.988v-39.55zM46.001 368.767c0 8.526 6.976 15.504 15.502 15.504h69.778c8.53 0 15.506-6.978 15.506-15.504v-69.778c0-8.526-6.976-15.504-15.506-15.504H61.503c-8.526 0-15.502 6.978-15.502 15.504v69.778zm0-155.756c0 8.526 6.976 15.504 15.502 15.504h69.778c8.53 0 15.506-6.978 15.506-15.504v-69.778c0-8.526-6.976-15.504-15.506-15.504H61.503c-8.526 0-15.502 6.978-15.502 15.504v69.778z" fill="#fff"/></svg>