<?xml version="1.0" encoding="utf-8"?>
<!-- Generator: Adobe Illustrator 19.1.0, SVG Export Plug-In . SVG Version: 6.00 Build 0)  -->
<svg version="1.1" id="Layer_1" xmlns="http://www.w3.org/2000/svg" xmlns:xlink="http://www.w3.org/1999/xlink" x="0px" y="0px"
	 viewBox="0 0 512 512" style="enable-background:new 0 0 512 512;" xml:space="preserve">
<path style="fill:#FFFFFF;" d="M410.6,402.7l-3.5-23.4c-0.8-5.1-3.6-12.8-6.3-17.2l-99.5-160.6c-2.7-4.4-4.9-12.1-4.9-17.3v-42.9
	c0-5.1,4.2-9.4,9.4-9.4h1.8c5.1,0,10.6-4,12-9l4.1-14.1c1.4-4.9-1.6-9-6.7-9H195.3c-5.1,0-8.2,4-6.7,9l4.1,14.1c1.4,4.9,6.9,9,12,9
	h1.8c5.1,0,9.4,4.2,9.4,9.4v42.9c0,5.1-2.2,12.9-4.9,17.3l-99.7,160.6c-2.7,4.4-5.5,12.1-6.3,17.2l-3.5,23.4c-0.8,5.1,2.8,9.2,8,9.2
	h293.2C407.8,412,411.4,407.9,410.6,402.7z M351.9,378.2H160.1c-3.4,0-4.6-2.3-2.8-5.1l27.6-44.9c1.8-2.8,5.9-5.1,9.2-5.1H321
	c3.4,0,7.4,2.3,9,5.3l25,44.6C356.6,375.9,355.2,378.2,351.9,378.2L351.9,378.2z"/>
</svg>
