<?xml version="1.0" encoding="utf-8"?>
<!-- Generator: Adobe Illustrator 19.1.0, SVG Export Plug-In . SVG Version: 6.00 Build 0)  -->
<svg version="1.1" id="Layer_1" xmlns="http://www.w3.org/2000/svg" xmlns:xlink="http://www.w3.org/1999/xlink" x="0px" y="0px"
	 width="512px" height="512px" viewBox="-703 445 512 512" style="enable-background:new -703 445 512 512;" xml:space="preserve">
<style type="text/css">
	.st0{fill:#FFFFFF;}
</style>
<path class="st0" d="M-446.6,538c-89.7,0-162.7,73-162.7,162.7s73,162.7,162.7,162.7c89.7,0,162.7-73,162.7-162.7
	S-356.8,538-446.6,538z M-446.6,843.1c-73.3,0-133.6-55.3-141.5-126.5H-392l-63.5,63.5l22.3,22.3l93.8-93.8v-15.8l-93.8-93.8
	l-22.3,22.4l63.5,63.5h-196.1c7.9-71.2,68.2-126.5,141.5-126.5c78.6,0,142.4,63.8,142.4,142.4C-304.2,779.4-367.9,843.1-446.6,843.1
	z"/>
</svg>
