<svg id="Layer_1" xmlns="http://www.w3.org/2000/svg" width="512" height="512" viewBox="-703 445 512 512"><style>.st0{fill:#fff}</style><path class="st0" d="M-593.4 689.4c0-5 4.1-9.1 9.1-9.1h276.1c5.1 0 9.2 4.1 9.2 9.1v24.2c0 5-4.1 9.1-9.2 9.1h-276.1c-5 0-9.1-4.1-9.1-9.1v-24.2zM-593.4 585.1c0-5 4.1-9.1 9.1-9.1h276.1c5.1 0 9.2 4.1 9.2 9.1v24.1c0 5-4.1 9.1-9.2 9.1h-276.1c-5 0-9.1-4.1-9.1-9.1v-24.1zM-593.4 793.6c0-5 4.1-9.1 9.1-9.1h276.1c5.1 0 9.2 4.1 9.2 9.1v24.1c0 5-4.1 9.1-9.2 9.1h-276.1c-5 0-9.1-4.1-9.1-9.1v-24.1z"/></svg>