<?xml version="1.0" encoding="utf-8"?>
<!-- Generator: Adobe Illustrator 18.0.0, SVG Export Plug-In . SVG Version: 6.00 Build 0)  -->
<!DOCTYPE svg PUBLIC "-//W3C//DTD SVG 1.1//EN" "http://www.w3.org/Graphics/SVG/1.1/DTD/svg11.dtd">
<svg version="1.1" id="Layer_1" xmlns="http://www.w3.org/2000/svg" xmlns:xlink="http://www.w3.org/1999/xlink" x="0px" y="0px"
	 width="512px" height="512px" viewBox="0 0 512 512" enable-background="new 0 0 512 512" xml:space="preserve">
<g>
	<g>
		<path fill="#FFFFFF" d="M148.4,197.4c-28.2,0-51.1-22.9-51.1-51.1c0-28.2,22.9-51.1,51.1-51.1c28.2,0,51.1,22.9,51.1,51.1
			C199.6,174.5,176.6,197.4,148.4,197.4z"/>
		<g>
			<path fill="#FFFFFF" d="M393.1,135.4H208.5c1.3,3.5,2,7.2,2,11s-0.7,7.5-2,11h184.6c10,0,14.6-3.4,14.6-11
				C407.7,138.8,403.1,135.4,393.1,135.4z"/>
		</g>
	</g>
	<g>
		<path fill="#FFFFFF" d="M236.1,416.7c-28.2,0-51.1-22.9-51.1-51.1c0-28.2,22.9-51.1,51.1-51.1s51.1,22.9,51.1,51.1
			S264.3,416.7,236.1,416.7z"/>
		<g>
			<path fill="#FFFFFF" d="M393.1,354.6h-97c1.3,3.5,2,7.2,2,11s-0.7,7.5-2,11h97c10,0,14.6-3.4,14.6-11
				C407.7,358,403.1,354.6,393.1,354.6z"/>
			<path fill="#FFFFFF" d="M174,365.6c0-3.8,0.7-7.5,2-11h-60.5c-10,0-14.6,3.4-14.6,11c0,7.5,4.6,11,14.6,11H176
				C174.7,373,174,369.4,174,365.6z"/>
		</g>
	</g>
	<g>
		<path fill="#FFFFFF" d="M363.6,307c-28.2,0-51.1-22.9-51.1-51.1c0-28.2,22.9-51.1,51.1-51.1s51.1,22.9,51.1,51.1
			C414.7,284.1,391.7,307,363.6,307z"/>
		<g>
			<path fill="#FFFFFF" d="M301.5,255.9c0-3.8,0.7-7.5,2-11H115.6c-10,0-14.6,3.4-14.6,11c0,7.5,4.6,11,14.6,11h187.9
				C302.2,263.3,301.5,259.7,301.5,255.9z"/>
		</g>
	</g>
</g>
</svg>
