<svg id="Layer_1" xmlns="http://www.w3.org/2000/svg" width="512" height="512" viewBox="0 0 512 512"><style>.st0{fill:#fff}</style><path class="st0" d="M350.5 150.5H161.6C103.2 150.5 56 197.7 56 256s47.2 105.5 105.5 105.5h188.9c58.3 0 105.5-47.3 105.5-105.5s-47.2-105.5-105.4-105.5zm0 189.7c-43.2 0-78.8-32.6-83.6-74.5H137.2c-5.4 0-9.7-4.3-9.7-9.7 0-5.4 4.3-9.7 9.7-9.7h129.7c4.8-41.9 40.4-74.5 83.6-74.5 46.5 0 84.2 37.7 84.2 84.2-.1 46.5-37.8 84.2-84.2 84.2z"/><path class="st0" d="M350.5 195.4c-33.4 0-60.6 27.2-60.6 60.6 0 33.4 27.2 60.6 60.6 60.6 33.4 0 60.6-27.2 60.6-60.6-.1-33.4-27.2-60.6-60.6-60.6z"/></svg>