<?xml version="1.0" encoding="utf-8"?>
<!-- Generator: Adobe Illustrator 20.1.0, SVG Export Plug-In . SVG Version: 6.00 Build 0)  -->
<svg version="1.1" id="Layer_1" xmlns="http://www.w3.org/2000/svg" xmlns:xlink="http://www.w3.org/1999/xlink" x="0px" y="0px"
	 viewBox="0 0 512 512" style="enable-background:new 0 0 512 512;" xml:space="preserve">
<style type="text/css">
	.st0{fill:#FFFFFF;}
</style>
<path class="st0" d="M82,212.6c0-3.6,3-6.6,6.6-6.6h334.8c3.7,0,6.6,3,6.6,6.6v85.8c0,3.6-3,6.6-6.6,6.6H88.6c-3.6,0-6.6-3-6.6-6.6
	V212.6z M82,156.1c0-3.6,3-6.6,6.6-6.6h82.8c3.7,0,6.6,3,6.6,6.6V189c0,3.7-3,6.6-6.6,6.6H88.6c-3.6,0-6.6-3-6.6-6.6V156.1z M82,323
	c0-3.7,3-6.6,6.6-6.6h82.8c3.7,0,6.6,3,6.6,6.6v32.9c0,3.7-3,6.6-6.6,6.6H88.6c-3.6,0-6.6-3-6.6-6.6V323z M206,156.1
	c0-3.6,3-6.6,6.6-6.6h82.8c3.7,0,6.6,3,6.6,6.6V189c0,3.7-3,6.6-6.6,6.6h-82.8c-3.6,0-6.6-3-6.6-6.6V156.1z M206,323
	c0-3.7,3-6.6,6.6-6.6h82.8c3.7,0,6.6,3,6.6,6.6v32.9c0,3.7-3,6.6-6.6,6.6h-82.8c-3.6,0-6.6-3-6.6-6.6V323z M334,156.1
	c0-3.6,3-6.6,6.6-6.6h82.8c3.7,0,6.6,3,6.6,6.6V189c0,3.7-3,6.6-6.6,6.6h-82.8c-3.6,0-6.6-3-6.6-6.6V156.1z M334,323
	c0-3.7,3-6.6,6.6-6.6h82.8c3.7,0,6.6,3,6.6,6.6v32.9c0,3.7-3,6.6-6.6,6.6h-82.8c-3.6,0-6.6-3-6.6-6.6V323z"/>
</svg>
