<svg id="Layer_1" xmlns="http://www.w3.org/2000/svg" width="512" height="512" viewBox="-703 445 512 512"><style>.st0{fill:#fff}</style><path class="st0" d="M-486.1 684.6c0-3.6 3-6.6 6.6-6.6h205.7c3.7 0 6.6 3 6.6 6.6v32.9c0 3.6-3 6.6-6.6 6.6h-205.7c-3.6 0-6.6-3-6.6-6.6v-32.9zM-486.1 601.1c0-3.6 3-6.6 6.6-6.6h205.7c3.7 0 6.6 3 6.6 6.6V634c0 3.7-3 6.6-6.6 6.6h-205.7c-3.6 0-6.6-3-6.6-6.6v-32.9zM-486.1 768c0-3.7 3-6.6 6.6-6.6h205.7c3.7 0 6.6 3 6.6 6.6v32.9c0 3.7-3 6.6-6.6 6.6h-205.7c-3.6 0-6.6-3-6.6-6.6V768zM-616 803.9c0 2 1.7 3.7 3.7 3.7h76.4c2 0 3.7-1.7 3.7-3.7v-76.4c0-2-1.7-3.7-3.7-3.7h-76.4c-2 0-3.7 1.7-3.7 3.7v76.4zM-616 674.5c0 2 1.7 3.7 3.7 3.7h76.4c2 0 3.7-1.7 3.7-3.7v-76.4c0-2-1.7-3.7-3.7-3.7h-76.4c-2 0-3.7 1.7-3.7 3.7v76.4z"/></svg>