<?xml version="1.0" encoding="utf-8"?>
<!-- Generator: Adobe Illustrator 18.0.0, SVG Export Plug-In . SVG Version: 6.00 Build 0)  -->
<!DOCTYPE svg PUBLIC "-//W3C//DTD SVG 1.1//EN" "http://www.w3.org/Graphics/SVG/1.1/DTD/svg11.dtd">
<svg version="1.1" id="Layer_1" xmlns="http://www.w3.org/2000/svg" xmlns:xlink="http://www.w3.org/1999/xlink" x="0px" y="0px"
	 width="512px" height="512px" viewBox="0 0 512 512" enable-background="new 0 0 512 512" xml:space="preserve">
<g>
	<rect x="127.2" y="308" fill="#FFFFFF" width="191.2" height="33.5"/>
	<g>
		<path fill="#FFFFFF" d="M270.7,207.7h163.2l1.6,49h-6.9c-3.4-15.4-7.7-25.4-12.9-30.1c-5.2-4.6-16.2-7-32.9-7h-16.1v147.7
			c0,11.1,1.7,18,5.2,20.7c3.5,2.7,11.1,4.4,22.8,5.3v5.4h-84.1v-5.4c12.2-0.9,19.8-2.9,22.8-6c3-3.1,4.5-10.8,4.5-23.3V219.7h-16.2
			c-16,0-26.8,2.3-32.6,6.9c-5.8,4.6-10.1,14.7-13,30.2h-7L270.7,207.7z"/>
	</g>
	<polygon fill="#FFFFFF" points="257.2,193.7 318.4,193.7 318.4,168.9 127.2,168.9 127.2,202.4 256.9,202.4 	"/>
	<g>
		<polygon fill="#FFFFFF" points="254.5,270.7 254.5,270.7 254.5,270.5 254.6,268.7 254.6,268.7 255.6,238.4 127.2,238.4 127.2,272 
			254.5,272 		"/>
		<path fill="#FFFFFF" d="M318.4,272v-33.5h-21.5c-1.5,1.9-4.6,7.3-7.2,20.9l-2.1,11.4h0l-0.2,1.3H318.4z"/>
	</g>
	<path fill="#FFFFFF" d="M296.6,383.3h-0.2v-7.5H100.8V136.2h239.6v57.5h24.2v-72.4c0-5.1-4.2-9.3-9.3-9.3H85.9
		c-5.1,0-9.3,4.2-9.3,9.3v269.4c0,5.1,4.2,9.3,9.3,9.3h210.7V383.3z"/>
</g>
</svg>
