<?xml version="1.0" encoding="utf-8"?>
<!-- Generator: Adobe Illustrator 20.1.0, SVG Export Plug-In . SVG Version: 6.00 Build 0)  -->
<svg version="1.1" id="Layer_1" xmlns="http://www.w3.org/2000/svg" xmlns:xlink="http://www.w3.org/1999/xlink" x="0px" y="0px"
	 viewBox="0 0 512 512" style="enable-background:new 0 0 512 512;" xml:space="preserve">
<style type="text/css">
	.st0{fill:#FFFFFF;}
</style>
<path class="st0" d="M171.8,244c0-5,4.1-9.1,9.1-9.1H394c5.1,0,9.2,4.1,9.2,9.1v24.2c0,5-4.1,9.1-9.2,9.1H180.9
	c-5,0-9.1-4.1-9.1-9.1V244z M171.8,139.7c0-5,4.1-9.1,9.1-9.1H394c5.1,0,9.2,4.1,9.2,9.1v24.1c0,5-4.1,9.1-9.2,9.1H180.9
	c-5,0-9.1-4.1-9.1-9.1V139.7z M171.8,348.2c0-5,4.1-9.1,9.1-9.1H394c5.1,0,9.2,4.1,9.2,9.1v24.1c0,5-4.1,9.1-9.2,9.1H180.9
	c-5,0-9.1-4.1-9.1-9.1V348.2z"/>
<path class="st0" d="M108.8,244c0-5,4.1-9.1,9.1-9.1H144c5.1,0,9.2,4.1,9.2,9.1v24.2c0,5-4.1,9.1-9.2,9.1h-26.1
	c-5,0-9.1-4.1-9.1-9.1V244z M108.8,139.7c0-5,4.1-9.1,9.1-9.1H144c5.3,0.6,9.8,6.3,9.2,9.1l0,24.1c0,5-4.1,9.1-9.2,9.1h-26.1
	c-5,0-9.1-4.1-9.1-9.1V139.7z M108.8,348.2c0-5,4.1-9.1,9.1-9.1H144c5.1,0,9.2,4.1,9.2,9.1v24.1c0,5-4.1,9.1-9.2,9.1h-26.1
	c-5,0-9.1-4.1-9.1-9.1V348.2z"/>
</svg>
